<?xml version="1.0" standalone="no"?>
<!DOCTYPE svg PUBLIC "-//W3C//DTD SVG 1.1//EN" "http://www.w3.org/Graphics/SVG/1.1/DTD/svg11.dtd" >
<svg xmlns="http://www.w3.org/2000/svg">
<metadata>Generated by IcoMoon</metadata>
<defs>
<font id="font-400" horiz-adv-x="1024">
<font-face units-per-em="1024" ascent="960" descent="-64" />
<missing-glyph horiz-adv-x="1024" />
<glyph unicode="&#x20;" horiz-adv-x="512" d="" />
<glyph unicode="&#xf0b10;" glyph-name="star" horiz-adv-x="994" d="M228.8-64c-4.8 0-8 0-11.2 1.6-33.6 6.4-56 38.4-49.6 72l44.8 294.4-196.8 206.4c-9.6 9.6-12.8 19.2-16 28.8v1.6c-3.2 16 0 33.6 9.6 46.4 9.6 14.4 24 24 40 27.2l270.4 44.8 124.8 270.4c4.8 8 12.8 16 20.8 20.8l3.2 1.6c32 16 68.8 4.8 83.2-27.2l121.6-267.2 268.8-41.6c22.4-3.2 41.6-20.8 48-43.2 6.4-19.2 1.6-43.2-11.2-59.2l-1.6-1.6-196.8-209.6 44.8-294.4c3.2-12.8 0-27.2-6.4-40-8-16-22.4-25.6-38.4-30.4s-32-1.6-46.4 6.4l-238.4 136-238.4-139.2c-9.6-3.2-19.2-4.8-28.8-4.8zM232-1.6v0 0zM65.6 553.6l216-228.8-49.6-321.6 264 152 265.6-150.4-49.6 318.4 216 228.8-297.6 46.4-134.4 292.8-132.8-291.2-297.6-46.4zM62.4 556.8v0c0 0 0 0 0 0z" />
<glyph unicode="&#xf0b11;" glyph-name="bell" horiz-adv-x="803" d="M787.2 147.2c-20.8 17.6-38.4 40-48 65.6-41.6 88-49.6 211.2-49.6 300.8v1.6c0 113.6-67.2 216-169.6 262.4v68.8c0 62.4-51.2 113.6-113.6 113.6h-8c-62.4 0-113.6-51.2-113.6-113.6 0 0 0 0 0 0v-68.8c-104-46.4-169.6-150.4-169.6-264 0-88-8-212.8-49.6-300.8-9.6-25.6-27.2-48-48-65.6-12.8-6.4-19.2-19.2-16-33.6s16-24 30.4-24h217.6c0-84.8 68.8-155.2 153.6-155.2s153.6 68.8 153.6 155.2v0h217.6c14.4 0 27.2 9.6 30.4 24 1.6 14.4-4.8 27.2-17.6 33.6zM342.4 846.4c0 30.4 24 54.4 54.4 54.4 0 0 0 0 0 0h9.6c28.8 0 52.8-24 52.8-54.4v-49.6c-38.4 8-78.4 8-116.8 0v49.6zM401.6-1.6c-51.2 0-92.8 41.6-94.4 92.8h188.8c-1.6-51.2-43.2-92.8-94.4-92.8v0zM520 150.4h-422.4c6.4 9.6 11.2 17.6 16 27.2 40 78.4 60.8 192 60.8 336 0 126.4 100.8 230.4 227.2 230.4s228.8-102.4 228.8-228.8v-3.2c0-142.4 20.8-254.4 60.8-334.4 4.8-9.6 9.6-19.2 16-27.2h-187.2z" />
<glyph unicode="&#xf0b12;" glyph-name="cog" horiz-adv-x="933" d="M463.85-64c-65.806 0-120.376 54.571-120.376 120.376v1.605c0 14.445-8.025 27.285-22.47 32.1-36.915 14.445-70.621 35.31-102.721 59.386-11.235 9.63-27.285 9.63-38.52 3.21v0c-56.176-33.705-130.006-12.84-163.712 44.94s-12.84 131.611 44.94 165.317v0 0c12.84 4.815 19.26 19.26 17.655 32.1-4.815 36.915-4.815 73.831 0 110.746 1.605 14.445-4.815 28.89-17.655 35.31v0c-57.781 33.705-78.646 105.931-44.94 163.712 0 0 0 0 0 0v0c32.1 59.386 105.931 80.251 165.317 46.545l1.605-1.605c12.84-6.42 27.285-4.815 38.52 3.21 30.495 24.075 64.201 43.335 99.511 57.781 12.84 4.815 20.865 17.655 22.47 32.1 3.21 65.806 59.386 118.771 125.191 115.561 62.596-3.21 113.956-52.966 115.561-115.561v0c0-14.445 9.63-27.285 22.47-32.1 35.31-14.445 69.016-33.705 97.906-57.781 11.235-9.63 27.285-9.63 38.52-3.21l3.21 1.605c56.176 35.31 131.611 17.655 165.317-40.125 35.31-56.176 17.655-131.611-40.125-165.317-1.605-1.605-4.815-3.21-6.42-3.21v0l-3.21-1.605c-12.84-6.42-19.26-20.865-17.655-33.705 4.815-36.915 4.815-72.226 0-109.141-1.605-14.445 4.815-27.285 17.655-33.705l1.605-1.605c57.781-32.1 78.646-105.931 46.545-163.712 0 0 0 0 0 0v0c-33.705-57.781-105.931-78.646-163.712-44.94h-1.605c-12.84 6.42-28.89 4.815-40.125-3.21-30.495-25.68-64.201-44.94-101.116-60.991-12.84-4.815-22.47-17.655-22.47-32.1v-1.605c3.21-67.411-49.755-120.376-117.166-120.376zM199.022 237.743c27.285 0 52.966-9.63 72.226-25.68 24.075-19.26 51.361-35.31 80.251-46.545 43.335-17.655 73.831-59.386 73.831-107.536v-1.605c-1.605-22.47 16.050-41.73 36.915-43.335 22.47-1.605 41.73 16.050 43.335 36.915 0 1.605 0 3.21 0 4.815v1.605c0 46.545 28.89 89.881 72.226 107.536 28.89 11.235 56.176 27.285 80.251 46.545 36.915 30.495 88.276 35.31 130.006 11.235h1.605c19.26-11.235 43.335-4.815 54.571 14.445s4.815 43.335-14.445 54.571v0l-3.21 1.605c-40.125 22.47-64.201 67.411-57.781 113.956 4.815 28.89 4.815 57.781 0 86.671-6.42 46.545 16.050 93.091 57.781 115.561l3.21 1.605c19.26 11.235 25.68 35.31 16.050 54.571 0 0 0 0 0 0v0c-11.235 19.26-35.31 25.68-54.571 14.445l-3.21-1.605c-41.73-24.075-93.091-19.26-130.006 11.235-24.075 19.26-49.755 33.705-78.646 44.94-43.335 17.655-72.226 59.386-72.226 107.536v0c-1.605 22.47-20.865 38.52-43.335 36.915-20.865-1.605-36.915-17.655-36.915-36.915 0-48.15-28.89-89.881-73.831-107.536-28.89-11.235-54.571-25.68-78.646-44.94-36.915-28.89-88.276-33.705-128.401-9.63l-1.605 1.605c-19.26 11.235-43.335 4.815-54.571-14.445s-4.815-43.335 14.445-54.571c0 0 0 0 0 0v0 0c41.73-22.47 64.201-69.016 57.781-115.561-4.815-28.89-4.815-59.386 0-88.276 6.42-46.545-16.050-93.091-57.781-115.561v0c-19.26-11.235-25.68-35.31-16.050-54.571 0 0 0 0 0 0 11.235-19.26 35.31-25.68 54.571-14.445 16.050 9.63 35.31 14.445 56.176 14.445zM465.455 239.348c-117.166 0-211.862 94.696-211.862 210.257 0 117.166 94.696 211.862 210.257 211.862 117.166 0 211.862-94.696 211.862-210.257 0 0 0 0 0 0 0-117.166-94.696-211.862-210.257-211.862zM465.455 581.216c-72.226 0-131.611-57.781-131.611-130.006s57.781-131.611 130.006-131.611c72.226 0 131.611 57.781 131.611 130.006 0 0 0 0 0 0 0 72.226-59.386 131.611-130.006 131.611v0z" />
<glyph unicode="&#xf0b13;" glyph-name="delete" horiz-adv-x="965" d="M923.2 801.6v0h-219.2v89.6c0 38.4-30.4 68.8-68.8 68.8 0 0 0 0 0 0h-302.4c-38.4 0-68.8-30.4-68.8-68.8v-89.6h-219.2c-22.4 1.6-41.6-16-43.2-38.4s16-43.2 38.4-44.8c1.6 0 3.2 0 6.4 0h57.6l62.4-720c3.2-35.2 33.6-62.4 68.8-62.4h500.8c35.2 0 65.6 27.2 68.8 62.4l62.4 720h59.2c22.4 0 41.6 19.2 41.6 41.6-3.2 22.4-22.4 41.6-44.8 41.6zM347.2 876.8h275.2v-76.8h-275.2v76.8zM721.6 19.2h-476.8l-60.8 699.2h598.4l-60.8-699.2z" />
<glyph unicode="&#xf0b14;" glyph-name="exclamation-circle" horiz-adv-x="984" d="M491.2-64c-28.8 0-56 11.2-75.2 30.4l-51.2 49.6c-6.4 6.4-16 9.6-24 8l-70.4-9.6c-4.8 0-11.2-1.6-16-1.6-52.8 0-97.6 38.4-107.2 89.6l-12.8 70.4c-1.6 8-8 16-14.4 19.2l-62.4 33.6c-52.8 27.2-73.6 91.2-46.4 144l30.4 64c4.8 8 4.8 17.6 0 25.6l-30.4 64c-25.6 52.8-4.8 116.8 48 144l62.4 33.6c8 4.8 12.8 12.8 14.4 20.8l12.8 70.4c9.6 57.6 64 97.6 123.2 89.6l70.4-9.6c9.6-1.6 17.6 1.6 24 8l49.6 49.6c41.6 41.6 108.8 41.6 152 0l51.2-49.6c6.4-6.4 16-9.6 24-8l70.4 9.6c57.6 8 112-30.4 123.2-89.6l12.8-70.4c1.6-9.6 8-17.6 16-20.8l62.4-33.6c52.8-27.2 72-91.2 46.4-144l-30.4-64c-3.2-8-3.2-17.6 0-25.6l30.4-64c25.6-52.8 4.8-116.8-46.4-144l-64-32c-8-3.2-14.4-11.2-16-19.2l-12.8-70.4c-9.6-57.6-64-97.6-123.2-89.6l-70.4 9.6c-9.6 1.6-17.6-1.6-24-8l-49.6-48c-20.8-20.8-48-32-76.8-32v0zM345.6 104c28.8 0 56-11.2 75.2-30.4l51.2-49.6c11.2-11.2 28.8-11.2 40 0l51.2 49.6c24 24 57.6 35.2 91.2 30.4l70.4-9.6c16-1.6 30.4 8 32 24l12.8 70.4c6.4 33.6 27.2 62.4 56 76.8l62.4 33.6c14.4 8 19.2 25.6 12.8 40l-30.4 64c-14.4 30.4-14.4 65.6 0 96l30.4 64c8 14.4 1.6 32-12.8 38.4 0 0 0 0 0 0l-62.4 33.6c-30.4 16-51.2 44.8-56 78.4l-12.8 70.4c-3.2 14.4-17.6 22.4-32 20.8l-70.4-9.6c-33.6-4.8-67.2 6.4-91.2 30.4l-51.2 44.8c-11.2 11.2-28.8 11.2-40 0l-51.2-49.6c-24-24-57.6-33.6-91.2-30.4l-70.4 9.6c-16 1.6-30.4-8-32-24l-12.8-70.4c-4.8-33.6-25.6-62.4-56-78.4l-62.4-30.4c-14.4-8-19.2-24-12.8-38.4 0 0 0 0 0 0l30.4-64c14.4-30.4 14.4-65.6 0-96l-30.4-64c-8-14.4-1.6-32 12.8-40l62.4-33.6c30.4-16 51.2-44.8 56-78.4l12.8-70.4c3.2-16 17.6-25.6 32-24l70.4 9.6c4.8 3.2 9.6 4.8 16 6.4zM494.4 361.6c-22.4 0-40 17.6-40 40v0 243.2c0 22.4 17.6 40 40 40s40-17.6 40-40v-243.2c0-22.4-17.6-38.4-40-40v0zM494.4 204.8c27.2 0 49.6 22.4 49.6 49.6s-22.4 49.6-49.6 49.6c-27.2 0-49.6-22.4-49.6-49.6 0 0 0 0 0 0-1.6-27.2 20.8-49.6 49.6-49.6v0z" />
<glyph unicode="&#xf0b15;" glyph-name="pencil" horiz-adv-x="1022" d="M961.6 899.2c-80 80-209.6 80-289.6 0 0 0 0 0 0 0v0l-569.6-571.2c-4.8-4.8-8-11.2-9.6-17.6l-91.2-323.2c-6.4-20.8 4.8-43.2 25.6-49.6 0 0 1.6 0 1.6 0 6.4-1.6 14.4-1.6 20.8 0l321.6 91.2c20.8 6.4 33.6 27.2 27.2 48 0 0 0 0 0 1.6-1.6 6.4-4.8 12.8-9.6 17.6l-201.6 204.8 360 360 176-176-248-248c-16-16-16-41.6 0-56 16-16 41.6-16 56 0v0l430.4 430.4c80 78.4 80 208 0 288zM286.4 88l-188.8-54.4 52.8 190.4 136-136zM779.2 540.8l-176 176 57.6 57.6 176-176-57.6-57.6zM905.6 667.2l-12.8-12.8-176 176 11.2 11.2c48 48 128 48 176 0 49.6-46.4 49.6-126.4 1.6-174.4v0z" />
<glyph unicode="&#xf0b16;" glyph-name="shopping-basket" d="M742.4-64h-460.8c-121.6 0-224 91.2-238.4 212.8l-43.2 377.6c-11.2 94.4 57.6 179.2 152 190.4 6.4 0 12.8 1.6 19.2 1.6 22.4 0 40-17.6 40-40s-17.6-40-40-40c-51.2 0-92.8-41.6-92.8-92.8 0-3.2 0-6.4 0-11.2l43.2-377.6c9.6-81.6 78.4-142.4 160-142.4h459.2c81.6 0 150.4 60.8 158.4 142.4l44.8 379.2c6.4 51.2-30.4 96-80 102.4 0 0-1.6 0-1.6 0-3.2 0-6.4 0-11.2 0-22.4 0-40 17.6-40 40s17.6 40 40 40c96 0 172.8-78.4 172.8-172.8 0-6.4 0-12.8-1.6-19.2l-41.6-377.6c-14.4-121.6-116.8-212.8-238.4-212.8v0zM368 587.2v147.2c-6.4 80 54.4 150.4 136 156.8 80 6.4 150.4-54.4 156.8-136 0-6.4 0-14.4 0-20.8v-16h-172.8c-22.4 0-40-17.6-40-40s17.6-40 40-40c0 0 0 0 0 0h212.8c22.4 0 40 17.6 40 40 0 0 0 0 0 0v56c-1.6 124.8-102.4 225.6-227.2 225.6s-225.6-100.8-225.6-225.6c0 0 0 0 0 0v0-147.2c0-22.4 17.6-40 40-40s40 17.6 40 40c0 0 0 0 0 0v0zM390.4 377.6c0-27.2-22.4-49.6-49.6-49.6s-49.6 22.4-49.6 49.6c0 27.2 22.4 49.6 49.6 49.6 0 0 0 0 0 0 27.2 1.6 49.6-20.8 49.6-49.6 0 0 0 0 0 0zM512 428.8c-27.2 0-49.6-22.4-49.6-49.6s22.4-49.6 49.6-49.6 49.6 22.4 49.6 49.6c0 0 0 0 0 0 0 27.2-22.4 49.6-49.6 49.6zM684.8 428.8c-27.2 0-49.6-22.4-49.6-49.6s22.4-49.6 49.6-49.6c27.2 0 49.6 22.4 49.6 49.6v0c0 27.2-22.4 49.6-49.6 49.6v0zM340.8 256c-27.2 0-49.6-22.4-49.6-49.6s22.4-49.6 49.6-49.6c27.2 0 49.6 22.4 49.6 49.6 0 0 0 0 0 0 0 27.2-22.4 49.6-49.6 49.6 0 0 0 0 0 0zM512 256c-27.2 0-49.6-22.4-49.6-49.6s22.4-49.6 49.6-49.6c27.2 0 49.6 22.4 49.6 49.6 1.6 27.2-20.8 49.6-49.6 49.6 0 0 0 0 0 0v0 0zM684.8 256c-27.2 0-49.6-22.4-49.6-49.6s22.4-49.6 49.6-49.6c27.2 0 49.6 22.4 49.6 49.6s-20.8 49.6-49.6 49.6c0 0 0 0 0 0v0z" />
<glyph unicode="&#xf0b17;" glyph-name="shopping-cart" horiz-adv-x="1014" d="M1006.4 728c-8 9.6-19.2 14.4-30.4 14.4h-720l-3.2 25.6c-14.4 108.8-105.6 190.4-216 192-20.8-1.6-38.4-20.8-36.8-43.2 1.6-19.2 17.6-35.2 36.8-36.8 68.8 0 126.4-51.2 136-120l48-436.8c-43.2-19.2-70.4-62.4-70.4-108.8v-1.6c0-65.6 52.8-120 118.4-120h16c-20.8-60.8 11.2-128 73.6-150.4 62.4-20.8 128 12.8 148.8 75.2 8 24 8 51.2 0 75.2h171.2c-20.8-60.8 11.2-128 72-148.8s128 11.2 148.8 72-11.2 128-72 148.8c0 0 0 0 0 0-12.8 4.8-25.6 6.4-38.4 6.4h-518.4c-22.4 0-40 17.6-40 40 0 0 0 0 0 0v1.6c0 22.4 17.6 40 40 40h507.2c72 1.6 136 44.8 163.2 112 9.6 19.2 1.6 43.2-17.6 52.8s-43.2 1.6-52.8-17.6c0 0 0-1.6 0-1.6-16-38.4-51.2-62.4-92.8-64h-478.4l-35.2 328h662.4l-19.2-94.4c-6.4-20.8 6.4-43.2 27.2-49.6s43.2 6.4 49.6 27.2c0 1.6 0 1.6 0 3.2v1.6l28.8 142.4c3.2 12.8 0 25.6-6.4 35.2zM790.4 91.2c20.8 0 38.4-16 38.4-36.8s-16-38.4-36.8-38.4c-20.8 0-38.4 16-38.4 36.8 0 0 0 0 0 0-1.6 22.4 16 38.4 36.8 38.4zM396.8 91.2c20.8 0 38.4-16 38.4-38.4 0-20.8-16-38.4-38.4-38.4-20.8 0-38.4 16-38.4 38.4 0 0 0 0 0 0 1.6 22.4 17.6 38.4 38.4 38.4v0z" />
<glyph unicode="&#xf0b18;" glyph-name="user" horiz-adv-x="788" d="M747.504-64c-22.505 0-40.188 17.683-40.188 40.188 0 0 0 0 0 0v0c0 155.931-126.995 282.926-284.534 282.926h-59.479c-155.931 1.608-282.926-125.388-282.926-282.926-1.608-22.505-20.898-38.581-41.796-36.973-19.29 1.608-35.366 17.683-36.973 36.973 0 200.942 162.361 363.303 363.303 363.303h59.479c200.942 0 363.303-162.361 363.303-363.303 0-22.505-17.683-40.188-40.188-40.188zM389.024 419.868c-147.893 0-268.458 122.173-268.458 270.066s120.565 270.066 270.066 270.066c147.893 0 268.458-120.565 268.458-270.066v0c0-149.501-120.565-270.066-270.066-270.066zM389.024 879.623c-104.49 0-189.689-85.199-189.689-189.689s85.199-189.689 189.689-189.689 189.689 85.199 189.689 189.689c0 0 0 0 0 0 1.608 104.49-83.592 189.689-189.689 189.689 1.608 0 1.608 0 0 0z" />
<glyph unicode="&#xf0b35;" glyph-name="times" d="M662.4 444.8l329.6 320c41.6 40 43.2 107.2 3.2 150.4-40 41.6-107.2 43.2-150.4 3.2l-329.6-320-320 329.6c-40 41.6-107.2 43.2-148.8 1.6s-43.2-107.2-3.2-150.4l318.4-329.6-329.6-318.4c-41.6-40-43.2-107.2-3.2-150.4 40-41.6 107.2-43.2 150.4-3.2l329.6 318.4 320-328c40-41.6 107.2-43.2 150.4-3.2 41.6 40 43.2 107.2 3.2 150.4l-320 329.6z" />
<glyph unicode="&#xf0b37;" glyph-name="lock" horiz-adv-x="853" d="M724.8 619.2v43.2c0 163.2-132.8 297.6-297.6 297.6s-299.2-134.4-299.2-299.2v0-43.2c-70.4 0-128-57.6-128-128v-425.6c0-70.4 57.6-128 128-128h596.8c70.4 0 128 57.6 128 128v427.2c0 70.4-57.6 128-128 128zM212.8 660.8c0 118.4 96 212.8 212.8 212.8 118.4 0 212.8-96 212.8-212.8v-43.2h-425.6v43.2zM768 64c0-24-19.2-43.2-43.2-43.2h-596.8c-24 0-43.2 19.2-43.2 43.2v427.2c0 24 19.2 43.2 43.2 43.2h596.8c24 0 43.2-19.2 43.2-43.2v-427.2z" />
<glyph unicode="&#xf0b38;" glyph-name="lock-open" horiz-adv-x="853" d="M724.8 619.2h-512v35.2c0 115.2 88 211.2 203.2 220.8 72 3.2 140.8-30.4 184-88v0h76.8c6.4 0 12.8 6.4 12.8 12.8 0 1.6 0 4.8-1.6 6.4-56 99.2-164.8 160-280 153.6-158.4-9.6-280-147.2-280-307.2v-32c0-1.6 0-1.6 0-3.2-70.4 0-128-57.6-128-128v-425.6c0-70.4 57.6-128 128-129.6h596.8c70.4 0 128 57.6 128 129.6v427.2c0 70.4-57.6 128-128 128zM768 65.6c0-24-19.2-43.2-43.2-43.2h-596.8c-24 0-43.2 19.2-43.2 43.2v424c0 24 19.2 43.2 43.2 43.2h596.8c24 0 43.2-19.2 43.2-43.2 0 0 0 0 0 0v-424z" />
<glyph unicode="&#xf0b40;" glyph-name="phone" d="M971.117 261.308l-102.56 84.933c-68.908 54.485-168.263 49.678-232.363-11.218l-4.808-4.808c-9.615-9.615-27.243-9.615-36.858 0l-200.313 198.71c-9.615 9.615-9.615 27.243 0 36.858 0 0 0 0 0 0v0 0 0 0c60.895 64.1 65.703 163.455 12.82 233.966l-83.33 105.765c-44.87 60.895-131.405 72.113-190.698 27.243-6.41-4.808-11.218-9.615-17.628-16.025l-16.025-16.025c-108.97-108.97-134.61-304.476-52.883-435.881 0 0 48.075-112.175 209.928-272.426s272.426-209.928 272.426-209.928c131.405-80.125 326.911-56.088 434.279 52.883l14.423 14.423c56.088 52.883 57.69 141.020 4.808 197.108-1.603 4.808-6.41 9.615-11.218 14.423zM907.017 125.095l-14.423-14.423c-73.715-73.715-216.338-91.343-306.078-36.858l-6.41 3.205-8.013 1.603c-20.833 9.615-40.063 22.435-59.293 35.255-65.703 44.87-126.598 96.15-181.083 152.238-56.088 56.088-107.368 116.983-152.238 182.685-12.82 19.23-25.64 38.46-35.255 59.293l-3.205 8.013-4.808 6.41c-56.088 86.535-36.858 229.158 36.858 304.476l16.025 16.025c11.218 14.423 32.050 16.025 44.87 4.808 3.205-1.603 4.808-4.808 6.41-8.013l84.933-104.163c20.833-28.845 17.628-68.908-6.41-94.548-51.28-51.28-51.28-133.008 0-184.288 0 0 0 0 0 0l198.71-198.71c49.678-51.28 133.008-52.883 184.288-1.603 0 0 1.603 1.603 1.603 1.603l4.808 4.808c25.64 24.038 65.703 25.64 92.945 4.808l102.56-84.933c16.025-11.218 19.23-33.653 8.013-49.678 0-4.808-3.205-6.41-4.808-8.013z" />
<glyph unicode="&#xf0b41;" glyph-name="phone-slash" horiz-adv-x="947" d="M897.6 313.6l-94.4 78.4c-64 51.2-156.8 46.4-216-11.2l-3.2-3.2c-9.6-9.6-25.6-9.6-35.2 0l-73.6 73.6 204.8 324.8c11.2 17.6 6.4 40-11.2 51.2 0 0 0 0 0 0l-12.8 8c-17.6 11.2-40 6.4-51.2-11.2l-193.6-308.8-46.4 46.4c-9.6 9.6-9.6 25.6 0 33.6 0 0 0 0 0 0v0 0 0c56 59.2 62.4 150.4 12.8 216l-76.8 97.6c-43.2 56-121.6 67.2-177.6 25.6-4.8-3.2-11.2-8-16-14.4l-14.4-14.4c-100.8-99.2-123.2-281.6-48-401.6 0 0 44.8-104 193.6-252.8l3.2-3.2-153.6-246.4c-11.2-17.6-6.4-40 11.2-51.2 0 0 0 0 0 0l12.8-8c17.6-11.2 40-6.4 51.2 11.2l145.6 232c110.4-97.6 182.4-128 182.4-128 121.6-73.6 302.4-51.2 403.2 48l14.4 14.4c51.2 49.6 52.8 131.2 4.8 182.4-6.4 3.2-11.2 6.4-16 11.2zM166.4 488c-12.8 17.6-22.4 35.2-32 54.4l-6.4 12.8c-52.8 81.6-35.2 212.8 33.6 283.2l14.4 12.8c9.6 12.8 28.8 14.4 41.6 4.8 3.2-1.6 4.8-4.8 6.4-8l76.8-97.6c19.2-27.2 16-64-4.8-88-46.4-46.4-48-123.2 0-171.2 0 0 0 0 0 0l60.8-60.8-62.4-100.8c-46.4 49.6-89.6 102.4-128 158.4zM840 187.2l-14.4-14.4c-68.8-68.8-200-84.8-283.2-35.2l-12.8 6.4c-19.2 9.6-36.8 20.8-54.4 32-40 27.2-78.4 57.6-115.2 91.2l62.4 97.6 57.6-57.6c48-48 124.8-48 171.2 0 0 0 0 0 0 0l3.2 3.2c24 20.8 59.2 24 84.8 4.8l94.4-78.4c14.4-9.6 17.6-30.4 8-44.8 1.6-1.6 0-3.2-1.6-4.8z" />
<glyph unicode="&#xf0b44;" glyph-name="search" horiz-adv-x="1011" d="M676.8 841.6c-155.2 156.8-406.4 156.8-560 0s-155.2-411.2 0-568c136-137.6 348.8-156.8 507.2-46.4 3.2-16 11.2-30.4 22.4-43.2l225.6-227.2c33.6-32 86.4-30.4 118.4 3.2 30.4 32 30.4 84.8 0 116.8l-227.2 230.4c-11.2 11.2-25.6 19.2-41.6 22.4 108.8 160 91.2 376-44.8 512zM606.4 347.2c-115.2-116.8-302.4-116.8-419.2 0s-115.2 307.2 0 424 302.4 116.8 419.2 0c0 0 0 0 0 0 115.2-118.4 115.2-307.2 0-424v0z" />
<glyph unicode="&#xf0b45;" glyph-name="reload" horiz-adv-x="1252" d="M282.934 645.45l-70.885-70.885c69.676 228.562 311.731 357.443 540.293 287.566 87.196-26.582 163.719-79.947 218.695-152.643l62.829 47.525c-170.566 225.34-491.158 269.845-716.498 99.48-93.439-70.683-159.692-171.17-187.884-284.747l-73.905 73.704-55.58-55.781 169.358-169.358 169.358 169.358-55.781 55.781zM1082.198 476.495l-169.358-169.358 55.781-55.781 71.69 71.69c-69.274-228.965-310.925-358.652-540.092-289.378-91.022 27.589-170.566 84.175-226.146 161.504l-63.836-45.914c78.94-110.354 198.759-184.662 332.876-206.411 27.387-4.43 55.177-6.645 83.169-6.645 235.006 0.201 439.806 160.699 495.789 389.060l73.704-73.704 55.781 55.781-169.358 169.156zM1080.184 362.918l2.014 2.014 2.819-3.021-4.833 1.007z" />
<glyph unicode="&#xf0b46;" glyph-name="calendar-alt" horiz-adv-x="1022" d="M305.6 316.8c0-27.2-22.4-49.6-49.6-49.6s-49.6 22.4-49.6 49.6c0 27.2 22.4 49.6 49.6 49.6v0c27.2 0 49.6-22.4 49.6-49.6zM427.2 366.4c-27.2 0-49.6-22.4-49.6-49.6s22.4-49.6 49.6-49.6 49.6 22.4 49.6 49.6-22.4 49.6-49.6 49.6zM598.4 366.4c-27.2 0-49.6-22.4-49.6-49.6s22.4-49.6 49.6-49.6 49.6 22.4 49.6 49.6-20.8 49.6-49.6 49.6zM254.4 193.6c-27.2 0-49.6-22.4-49.6-49.6s22.4-49.6 49.6-49.6 49.6 22.4 49.6 49.6-20.8 49.6-49.6 49.6v0zM427.2 193.6c-27.2 0-49.6-22.4-49.6-49.6s22.4-49.6 49.6-49.6 49.6 22.4 49.6 49.6-22.4 49.6-49.6 49.6v0zM598.4 193.6c-27.2 0-49.6-22.4-49.6-49.6s22.4-49.6 49.6-49.6 49.6 22.4 49.6 49.6-20.8 49.6-49.6 49.6v0zM771.2 193.6c-27.2 0-49.6-22.4-49.6-49.6s22.4-49.6 49.6-49.6c27.2 0 49.6 22.4 49.6 49.6s-22.4 49.6-49.6 49.6v0 0zM1022.4 502.4v-326.4c0-132.8-107.2-240-240-240h-542.4c-132.8 0-240 107.2-240 240v326.4c0 132.8 107.2 240 240 240h542.4c132.8-1.6 240-107.2 240-240zM942.4 502.4c0 88-72 160-160 160h-542.4c-88 0-160-72-160-160v-326.4c0-88 72-160 160-160h542.4c88 0 160 72 160 160v326.4zM822.4 523.2h-622.4c-22.4 0-40-17.6-40-40s17.6-40 40-40h624c22.4 0 40 17.6 40 40 0 20.8-19.2 40-41.6 40zM403.2 838.4c0-22.4-17.6-40-40-41.6-22.4 0-40 17.6-41.6 40v1.6c0 22.4-17.6 40-40 41.6-22.4 0-40-17.6-41.6-40v-1.6c0-22.4-17.6-40-40-41.6s-38.4 17.6-40 40v1.6c-1.6 64 52.8 120 120 121.6 65.6 1.6 120-51.2 123.2-118.4 0-1.6 0-3.2 0-3.2zM742.4 956.8c-65.6 0-120-52.8-120-120 0-22.4 19.2-40 41.6-40 20.8 0 38.4 17.6 40 40 0 22.4 17.6 40 40 40s40-17.6 40-40 19.2-40 41.6-40c20.8 0 38.4 17.6 40 40-3.2 65.6-57.6 120-123.2 120zM771.2 366.4c-27.2 0-49.6-22.4-49.6-49.6s22.4-49.6 49.6-49.6c27.2 0 49.6 22.4 49.6 49.6s-22.4 49.6-49.6 49.6v0z" />
<glyph unicode="&#xf0b47;" glyph-name="mobile-rotate" horiz-adv-x="976" d="M904 433.6h-336v-72h337.6v-350.4c0 0 0 0 0 0h-336c0-27.2-8-51.2-20.8-72h356.8c40 0 72 32 72 72v350.4c-1.6 40-33.6 72-73.6 72zM422.4 747.2h-350.4c-40 0-72-32-72-72v-664c0-40 32-72 72-72h352c40 0 72 32 72 72v664c0 40-33.6 72-73.6 72zM72 675.2h350.4v-592h-350.4v592zM209.6 12.8c0 20.8 17.6 38.4 38.4 38.4s38.4-17.6 38.4-38.4c0-20.8-17.6-38.4-38.4-38.4s-38.4 17.6-38.4 38.4zM732.8 689.6h-48c-3.2 0-6.4-1.6-8-4.8s0-6.4 1.6-9.6l84.8-84.8c3.2-3.2 9.6-3.2 12.8 0l84.8 84.8c3.2 3.2 3.2 6.4 1.6 9.6s-4.8 4.8-8 4.8h-48c-3.2 148.8-123.2 268.8-272 268.8-19.2 0-36.8-16-36.8-36.8 0-19.2 16-36.8 36.8-36.8 107.2 0 196.8-86.4 198.4-195.2z" />
<glyph unicode="&#xf0b48;" glyph-name="copy" d="M720.24 960.064h-556.8c-51.2 0-92.8-41.6-92.8-92.8v0-651.2h92.8v651.2h555.2v92.8zM861.040 772.864h-510.4c-51.2 0-92.8-41.6-92.8-92.8v0-651.2c0-51.2 41.6-92.8 92.8-92.8v0h510.4c51.2 0 92.8 41.6 92.8 92.8v0 651.2c0 51.2-41.6 92.8-92.8 92.8v0zM861.040 28.864h-510.4v651.2h510.4v-651.2z" />
<glyph unicode="&#xf0b49;" glyph-name="calendar" horiz-adv-x="1022" d="M633.152 528.4c0-22.975-18.625-41.6-41.6-41.6s-41.6 18.625-41.6 41.6c0 22.975 18.625 41.6 41.6 41.6s41.6-18.625 41.6-41.6zM633.152 365.2c0-22.975-18.625-41.6-41.6-41.6s-41.6 18.625-41.6 41.6c0 22.975 18.625 41.6 41.6 41.6s41.6-18.625 41.6-41.6zM797.952 528.4c0-22.975-18.625-41.6-41.6-41.6s-41.6 18.625-41.6 41.6c0 22.975 18.625 41.6 41.6 41.6s41.6-18.625 41.6-41.6zM981.952 458c22.4 0 41.6 17.6 41.6 41.6v0 219.2c0 89.6-72 158.4-158.4 158.4h-52.8v38.4c0 22.4-19.2 38.4-41.6 38.4s-38.4-17.6-38.4-38.4v-41.6h-180.8v41.6c0 22.4-17.6 41.6-38.4 41.6s-41.6-17.6-41.6-38.4v-44.8h-182.4v41.6c0 24-19.2 41.6-41.6 41.6s-38.4-17.6-38.4-38.4v-41.6h-51.2c-86.4 0-158.4-72-158.4-158.4v-620.8c0-89.6 72-158.4 158.4-158.4h504c3.2 0 3.2 0 4.8 0s3.2 0 4.8 0c12.8 0 22.4 4.8 28.8 12.8l310.4 323.2c14.4 17.6 14.4 41.6 0 56-8 8-17.6 12.8-28.8 12.8h-192c-89.6 0-158.4-72-158.4-158.4v-163.2h-472c-43.2 0-80 36.8-80 80v616c0 43.2 36.8 80 80 80h51.2v-41.6c0-22.4 17.6-41.6 38.4-41.6 22.4 0 41.6 17.6 41.6 38.4v44.8h179.2v-41.6c0-22.4 17.6-41.6 38.4-41.6s41.6 17.6 41.6 38.4v44.8h180.8v-41.6c0-22.4 17.6-41.6 38.4-41.6s41.6 17.6 41.6 38.4v44.8h52.8c43.2 0 80-36.8 80-80v-219.2c-1.6-24 14.4-41.6 38.4-41.6zM709.952 179.6c0 43.2 36.8 80 80 80h99.2l-179.2-185.6c0 0 0 105.6 0 105.6zM306.752 528.4c0-22.975-18.625-41.6-41.6-41.6s-41.6 18.625-41.6 41.6c0 22.975 18.625 41.6 41.6 41.6s41.6-18.625 41.6-41.6zM469.952 365.2c0-22.975-18.625-41.6-41.6-41.6s-41.6 18.625-41.6 41.6c0 22.975 18.625 41.6 41.6 41.6s41.6-18.625 41.6-41.6zM306.752 202c0-22.975-18.625-41.6-41.6-41.6s-41.6 18.625-41.6 41.6c0 22.975 18.625 41.6 41.6 41.6s41.6-18.625 41.6-41.6zM306.752 365.2c0-22.975-18.625-41.6-41.6-41.6s-41.6 18.625-41.6 41.6c0 22.975 18.625 41.6 41.6 41.6s41.6-18.625 41.6-41.6zM469.952 202c0-22.975-18.625-41.6-41.6-41.6s-41.6 18.625-41.6 41.6c0 22.975 18.625 41.6 41.6 41.6s41.6-18.625 41.6-41.6zM469.952 528.4c0-22.975-18.625-41.6-41.6-41.6s-41.6 18.625-41.6 41.6c0 22.975 18.625 41.6 41.6 41.6s41.6-18.625 41.6-41.6z" />
<glyph unicode="&#xf0b50;" glyph-name="filter-alt" horiz-adv-x="1528" d="M594.576-63.584h339.2v168h-339.2v-168zM-0.624 955.616v-168h1528v168h-1528zM253.776 362.016h1019.2v168h-1019.2v-168z" />
<glyph unicode="&#xf0b51;" glyph-name="tool-background" horiz-adv-x="1021" d="M979.744 254.432c20.8 0 40 19.2 40 40v260.8c0 89.6-72 158.4-158.4 158.4h-83.2v86.4c0 86.4-72 158.4-158.4 158.4h-457.6c-89.6 1.6-161.6-72-161.6-158.4v-457.6c0-89.6 72-158.4 158.4-158.4h83.2v-86.4c0-91.2 73.6-161.6 161.6-161.6h457.6c89.6 0 158.4 72 158.4 158.4 0 20.8-19.2 40-40 38.4-20.8 0-38.4-19.2-38.4-38.4 0-43.2-35.2-80-80-80h-457.6c-43.2 0-80 35.2-80 80v460.8c0 43.2 35.2 80 80 80h457.6c43.2 0 80-35.2 80-80v-259.2c1.6-24 17.6-41.6 38.4-41.6v0zM80.544 800.032c0 43.2 35.2 80 80 80h54.4l-134.4-136v56zM242.144 262.432h-75.2l75.2 78.4v-78.4zM242.144 555.232v-102.4l-150.4-150.4c-8 11.2-11.2 24-11.2 36.8v62.4l164.8 164.8c-3.2-3.2-3.2-8-3.2-11.2v0zM80.544 518.432v112l248 248h113.6l-361.6-360zM506.144 713.632h-102.4c-4.8 0-8 0-12.8 0l156.8 156.8c3.2 3.2 4.8 4.8 8 11.2h64c12.8 0 30.4-3.2 40-11.2l-153.6-156.8zM698.144 713.632h-80l80 80v-80z" />
<glyph unicode="&#xf0b52;" glyph-name="timezone" d="M936.928 358.8c11.2 41.6 16 83.2 17.6 124.8 4.8 254.4-220.8 480-475.2 475.2v0c-256 8-481.6-217.6-478.4-475.2-6.4-256 219.2-481.6 476.8-476.8v0c41.6 1.6 83.2 6.4 124.8 16 46.4-54.4 112-84.8 182.4-84.8 222.4 1.6 321.6 281.6 152 420.8zM784.928 413.2c-19.2 0-41.6-1.6-60.8-8 1.6 17.6 1.6 33.6 4.8 46.4h166.4c-1.6-19.2-4.8-41.6-8-60.8-35.2 16-68.8 22.4-102.4 22.4zM581.728 299.6c-24 4.8-48 6.4-75.2 8v144h160c0-19.2-1.6-43.2-6.4-75.2-32-17.6-57.6-43.2-78.4-76.8v0zM63.328 453.2h163.2c1.6-59.2 12.8-120 30.4-177.6-40-11.2-78.4-24-116.8-40-44.8 64-73.6 139.2-76.8 217.6zM141.728 730c36.8-16 76.8-30.4 116.8-41.6-17.6-57.6-28.8-116.8-30.4-176h-164.8c3.2 78.4 32 153.6 78.4 217.6zM893.728 512.4h-166.4c-1.6 59.2-12.8 118.4-30.4 172.8 40 11.2 78.4 24 118.4 41.6 44.8-60.8 72-136 78.4-214.4v0zM668.128 512.4h-158.4v142.4c43.2 1.6 88 8 129.6 17.6 16-49.6 27.2-105.6 28.8-160zM448.928 246.8v-153.6c-46.4 40-83.2 88-110.4 140.8 38.4 6.4 73.6 12.8 110.4 12.8zM317.728 291.6c-17.6 52.8-25.6 107.2-28.8 161.6h160v-144c-44.8-3.2-89.6-9.6-131.2-17.6v0zM508.128 717.2v155.2c22.4-17.6 41.6-40 57.6-60.8 19.2-24 35.2-52.8 48-78.4-33.6-9.6-68.8-14.4-105.6-16zM448.928 872.4v-158.4c-36.8 1.6-75.2 6.4-110.4 16 27.2 54.4 64 102.4 110.4 142.4zM448.928 654.8v-142.4h-163.2c1.6 54.4 11.2 107.2 28.8 160 44.8-8 88-14.4 134.4-17.6v0zM279.328 221.2c24-52.8 57.6-100.8 96-140.8-72 17.6-140.8 57.6-193.6 110.4 32 11.2 65.6 20.8 97.6 30.4zM773.728 778c-33.6-12.8-65.6-24-99.2-33.6-24 52.8-57.6 102.4-96 144 73.6-19.2 139.2-57.6 195.2-110.4zM376.928 886.8c-40-41.6-72-89.6-96-142.4-33.6 8-64 19.2-96 33.6 51.2 52.8 118.4 89.6 192 108.8zM508.128 67.6v179.2c17.6 0 33.6-1.6 48-4.8-16-54.4-11.2-113.6 12.8-166.4-19.2-1.6-41.6-6.4-60.8-8v0zM816.928 2v12.8c0 17.6-12.8 28.8-30.4 28.8-16 0-28.8-12.8-28.8-28.8v-16c-75.2 11.2-136 70.4-148.8 147.2h12.8c17.6 0 28.8 12.8 28.8 30.4 0 16-12.8 28.8-28.8 28.8h-12.8c12.8 75.2 70.4 134.4 144 144v-12.8c0-17.6 12.8-28.8 30.4-28.8 16 0 28.8 12.8 28.8 28.8v14.4c75.2-12.8 134.4-70.4 144-144h-12.8c-17.6 0-28.8-12.8-28.8-30.4 0-16 12.8-28.8 28.8-28.8h12.8c-8-73.6-64-132.8-139.2-145.6zM805.728 157.2c-6.4 6.4-12.8 11.2-22.4 8h-41.6c-17.6 0-28.8-16-28.8-30.4 0-16 12.8-28.8 28.8-28.8h28.8l52.8-57.6c11.2-12.8 30.4-12.8 41.6-1.6 12.8 11.2 12.8 30.4 1.6 41.6v0l-60.8 68.8z" />
<glyph unicode="&#xf0b53;" glyph-name="linespacing" horiz-adv-x="981" d="M938.234 35.307h-426.266c-24.038 0-43.268 28.845-43.268 62.498s19.23 65.703 41.665 65.703h427.869c22.435 0 41.665-28.845 41.665-65.703s-19.23-62.498-41.665-62.498zM938.234 364.061h-426.266c-24.038 0-43.268 28.845-43.268 62.498s19.23 65.703 43.268 65.703h427.869c20.833 0 41.665-28.845 41.665-65.703s-20.833-62.498-43.268-62.498zM938.234 692.831h-426.266c-24.038 0-43.268 28.845-43.268 62.498s19.23 65.703 41.665 65.703h427.869c22.435 0 41.665-28.845 41.665-65.703s-19.23-62.498-41.665-62.498zM309.075 150.287h-96.15v597.734h96.15c17.628 0 30.448 14.423 30.448 30.448 0 8.013-3.205 17.628-8.013 22.435l-139.418 147.43c-11.218 14.423-30.448 14.423-41.665 3.205 0 0 0 0-3.205-3.205l-139.418-147.43c-11.218-14.423-11.218-33.653 3.205-44.87 6.41-6.41 14.423-8.013 22.435-8.013h96.15v-597.734h-99.355c-17.628 0-30.448-14.423-30.448-30.448 0-8.013 3.205-17.628 8.013-22.435l139.418-150.635c11.218-14.423 30.448-14.423 44.87-3.205 0 0 0 0 3.205 3.205l139.418 150.635c6.41 6.41 8.013 14.423 8.013 22.435 0 6.41 0 8.013-3.205 14.423-4.808 8.013-16.025 16.025-30.448 16.025v0z" />
<glyph unicode="&#xf0b54;" glyph-name="tool-translate" horiz-adv-x="1072" d="M0 131.2h195.2v-195.2h-195.2v195.2zM36.8 561.6h195.2v-195.2h-195.2v195.2zM876.8 131.2h195.2v-195.2h-195.2v195.2zM835.2 561.6h195.2v-195.2h-195.2v195.2zM876.8 960h195.2v-195.2h-195.2v195.2zM440 923.2h195.2v-195.2h-195.2v195.2zM440 179.2h195.2v-195.2h-195.2v195.2zM0 960h195.2v-195.2h-195.2v195.2zM440 561.6h195.2v-195.2h-195.2v195.2zM91.2 860.8v-828.8h884.8v828.8h-884.8zM932.8 78.4h-798.4v747.2h798.4v-747.2z" />
<glyph unicode="&#xf0b55;" glyph-name="mirror" horiz-adv-x="1453" d="M881.92 432c-12.8 8-19.2 24-11.2 38.4 3.2 4.8 4.8 8 11.2 11.2l531.2 291.2c12.8 8 28.8 3.2 38.4-11.2 3.2-3.2 3.2-8 3.2-12.8v-582.4c0-16-11.2-27.2-27.2-27.2-4.8 0-8 0-12.8 3.2l-532.8 289.6zM53.12 137.6c-30.4 0-52.8 22.4-52.8 52.8v529.6c0 6.4 0 19.2 8 28.8 8 11.2 19.2 20.8 32 24s27.2 1.6 40-6.4l476.8-262.4c9.6-4.8 16-11.2 20.8-20.8 14.4-25.6 6.4-57.6-20.8-73.6l-480-265.6c-9.6-4.8-16-6.4-24-6.4zM57.92 713.6v-515.2l465.6 257.6-465.6 257.6zM51.52 712v0c0 0 0 0 0 0zM51.52 716.8c0 0 0 0 0 0v0zM752.32-64h-54.4v81.6h54.4c0 0 0-81.6 0-81.6zM752.32 124.8h-54.4v81.6h54.4c0-1.6 0-81.6 0-81.6zM752.32 313.6h-54.4v81.6h54.4c0-1.6 0-81.6 0-81.6zM752.32 502.4h-54.4v81.6h54.4c0-1.6 0-81.6 0-81.6zM752.32 691.2h-54.4v81.6h54.4c0-1.6 0-81.6 0-81.6zM752.32 878.4h-54.4v81.6h54.4c0 0 0-81.6 0-81.6z" />
<glyph unicode="&#xf0b56;" glyph-name="touch" d="M897.216 490.608c-32 0-62.4-11.2-86.4-32-14.4 12.8-33.6 24-54.4 27.2 51.2 206.4-75.2 414.4-281.6 465.6s-414.4-76.8-464-283.2c-46.4-193.6 60.8-388.8 248-454.4v-278.4h86.4v643.2c0 24 17.6 43.2 40 43.2 24 0 43.2-17.6 43.2-40v-430.4l86.4 1.6v208c0 1.6 0 6.4 0 8 4.8 14.4 12.8 25.6 27.2 30.4 20.8 8 46.4-4.8 54.4-25.6 1.6-4.8 1.6-11.2 1.6-14.4v-214.4h86.4v216c0 4.8 0 8 1.6 11.2v1.6c1.6 4.8 1.6 6.4 4.8 11.2 0 0 0 0 1.6 1.6s4.8 4.8 6.4 6.4c0 0 1.6 0 1.6 1.6 6.4 4.8 14.4 8 25.6 8 24 0 43.2-19.2 43.2-43.2v-214.4h86.4v216c0 24 19.2 43.2 43.2 40 24 0 40-19.2 40-40v-427.2h86.4v427.2c1.6 70.4-57.6 129.6-128 129.6zM516.416 484.208v0l-1.6 94.4c0 70.4-57.6 128-128 128s-128-57.6-128-128v0-270.4c-150.4 70.4-214.4 248-144 396.8s251.2 214.4 398.4 142.4c139.2-67.2 206.4-228.8 152-372.8-4.8-1.6-8-4.8-11.2-6.4-1.6-1.6-4.8-1.6-4.8-4.8 0-1.6-4.8-1.6-6.4-4.8v-1.6c-35.2 30.4-84.8 41.6-126.4 27.2z" />
<glyph unicode="&#xf0b57;" glyph-name="clock" d="M692.586 357.651l-142.623 107.368v217.941c0 22.435-17.628 40.063-40.063 40.063s-38.46-17.628-38.46-40.063v-237.171c0-12.82 6.41-24.038 16.025-32.050l158.648-118.585c17.628-12.82 41.665-9.615 56.088 9.615 11.218 16.025 9.615 40.063-9.615 52.883zM511.103 960.593c-280.438 0-511.199-230.761-511.199-512.801s230.761-511.199 511.199-511.199 511.199 230.761 511.199 511.199-229.158 512.801-511.199 512.801zM511.103 15.116c-238.773 0-432.676 193.903-432.676 432.676s193.903 434.279 432.676 434.279 434.279-195.505 434.279-434.279v0c-1.603-238.773-193.903-431.074-434.279-432.676z" />
<glyph unicode="&#xf0b58;" glyph-name="tool-opacity" d="M1017.376 656.672c0 0 0 1.6 0 0-4.8 30.4-16 60.8-28.8 89.6 0 0 0 3.2-3.2 3.2-12.8 25.6-25.6 48-43.2 68.8l-3.2 3.2c-17.6 20.8-35.2 38.4-56 56v0l-3.2 3.2c-20.8 17.6-46.4 30.4-68.8 43.2 0 0-3.2 0-3.2 3.2-28.8 12.8-56 22.4-86.4 28.8v0c-38.4 8-76.8 8-115.2 3.2v0c-152-28.8-276.8-145.6-307.2-297.6-40-8-78.4-22.4-112-43.2-8-4.8-9.6-12.8-4.8-20.8s12.8-9.6 20.8-4.8c28.8 17.6 60.8 30.4 94.4 38.4-4.8-35.2-3.2-72 3.2-104v0c4.8-30.4 16-59.2 28.8-86.4 0 0 0-3.2 3.2-3.2 12.8-25.6 25.6-48 43.2-68.8l3.2-3.2c16-20.8 35.2-38.4 56-56v0l3.2-3.2c20.8-17.6 46.4-30.4 68.8-43.2 0 0 3.2 0 3.2-3.2 28.8-12.8 56-22.4 86.4-28.8v0c35.2-8 72-8 107.2-4.8-48-179.2-228.8-291.2-409.6-249.6-153.6 35.2-259.2 169.6-259.2 328 0 91.2 38.4 180.8 104 244.8 4.8 4.8 4.8 16 0 20.8s-16 4.8-20.8 0c-147.2-140.8-152-371.2-16-516.8s371.2-152 516.8-16c56 51.2 91.2 120 107.2 193.6 152 30.4 270.4 155.2 289.6 313.6v0c11.2 35.2 9.6 75.2 1.6 112v0zM930.976 786.272c9.6-12.8 17.6-28.8 28.8-43.2l-268.8-265.6c-8 16-17.6 30.4-28.8 43.2l268.8 265.6zM913.376 811.872l-267.2-268.8c-9.6 12.8-22.4 25.6-35.2 35.2l265.6 265.6c12.8-9.6 24-22.4 36.8-32v0zM854.176 864.672l-267.2-267.2c-12.8 9.6-28.8 20.8-43.2 28.8l264 264c16-8 32-16 46.4-25.6zM724.576 920.672c17.6-3.2 35.2-9.6 52.8-16l-262.4-267.2c-17.6 8-35.2 12.8-52.8 17.6l262.4 265.6zM617.376 923.872c12.8 3.2 28.8 3.2 40 3.2 9.6 0 20.8 0 30.4-3.2l-260.8-260.8c-17.6 3.2-38.4 4.8-56 4.8-3.2 0-4.8 0-9.6 0l256 256zM564.576 912.672l-230.4-228.8c33.6 108.8 120 196.8 230.4 228.8v0zM321.376 559.072c0 9.6-3.2 20.8-3.2 30.4 0 12.8 0 28.8 3.2 40l4.8 4.8c12.8 3.2 28.8 3.2 40 3.2 9.6 0 20.8 0 30.4-3.2l-75.2-75.2zM327.776 523.872l108.8 108.8c17.6-3.2 35.2-9.6 52.8-16l-147.2-147.2c-4.8 16-9.6 33.6-14.4 54.4v0zM383.776 394.272c-9.6 12.8-17.6 28.8-25.6 43.2l163.2 163.2c16-8 30.4-17.6 43.2-25.6l-180.8-180.8zM402.976 370.272l185.6 185.6c12.8-9.6 25.6-22.4 35.2-35.2l-187.2-185.6c-12.8 9.6-22.4 22.4-33.6 35.2v0zM462.176 317.472l180.8 180.8c9.6-12.8 17.6-28.8 28.8-43.2l-166.4-166.4c-14.4 8-30.4 17.6-43.2 28.8v0zM590.176 261.472c-17.6 4.8-35.2 9.6-52.8 16l150.4 150.4c8-17.6 12.8-35.2 16-52.8l-113.6-113.6zM703.776 263.072l-8-8c-12.8-3.2-25.6-3.2-38.4-3.2-9.6 0-22.4 0-33.6 3.2l78.4 78.4c0-9.6 3.2-20.8 3.2-33.6 1.6-11.2 1.6-24-1.6-36.8v0zM724.576 395.872c-4.8 17.6-9.6 35.2-17.6 52.8l264 265.6c8-17.6 12.8-35.2 16-52.8l-262.4-265.6zM750.176 266.272l232 232c-30.4-112-120-201.6-232-232v0zM991.776 551.072l-254.4-254.4c0 3.2 0 4.8 0 8 0 20.8-3.2 40-4.8 59.2l259.2 259.2c0-9.6 3.2-20.8 3.2-33.6s0-25.6-3.2-38.4v0z" />
<glyph unicode="&#xf0b59;" glyph-name="crop" d="M969.6 273.6h-140.8v400c0 30.4-24 54.4-54.4 54.4h-452.8v177.6c0 30.4-24 54.4-54.4 54.4s-54.4-24-54.4-54.4v-177.6h-158.4c-30.4 0-54.4-24-54.4-54.4s24-54.4 54.4-54.4h156.8v-403.2c0-30.4 24-54.4 54.4-54.4h454.4v-171.2c0-30.4 24-54.4 54.4-54.4s54.4 24 54.4 54.4v171.2h140.8c30.4 0 54.4 24 54.4 54.4s-24 57.6-54.4 57.6zM321.6 273.6v345.6h398.4v-347.2h-398.4v1.6z" />
<glyph unicode="&#xf0b87;" glyph-name="info-circle" d="M512 960c-283.2 0-512-228.8-512-512s228.8-512 512-512 512 228.8 512 512-228.8 512-512 512zM512 28.8c-232 0-419.2 187.2-419.2 419.2s187.2 419.2 419.2 419.2 419.2-187.2 419.2-419.2v0c0-232-187.2-419.2-419.2-419.2zM512 742.4c-35.2 0-60.8-28.8-60.8-60.8s28.8-60.8 60.8-60.8c35.2 0 60.8 28.8 60.8 60.8s-25.6 60.8-60.8 60.8zM512 526.4c-27.2 0-46.4-20.8-46.4-46.4v-278.4c0-27.2 20.8-46.4 46.4-46.4 27.2 0 46.4 20.8 46.4 46.4v276.8c0 27.2-19.2 48-46.4 48 0 0 0 0 0 0z" />
<glyph unicode="&#xf0c22;" glyph-name="apartment" horiz-adv-x="1107" d="M216.272 763.904c0 27.2 0 51.2 0 75.2 0 68.8 54.4 121.6 131.2 121.6 140.8 0 280 0 420.8 0 75.2 0 131.2-51.2 131.2-121.6 0-24 0-49.6 0-75.2 6.4 0 9.6 0 14.4 0 30.4 0 60.8 0 91.2-1.6 56-6.4 100.8-52.8 104-110.4 0-1.6 0-6.4 0-9.6 0-195.2 0-392 0-585.6 0-56-40-105.6-94.4-116.8-11.2-1.6-24-3.2-35.2-3.2-281.6 0-561.6 0-843.2 0-75.2 0-132.8 51.2-132.8 123.2-3.2 193.6-3.2 390.4-3.2 584 0 70.4 54.4 121.6 132.8 123.2 27.2-3.2 54.4-3.2 83.2-3.2zM811.472 11.904v11.2c0 270.4 0 544 0 814.4 0 28.8-17.6 43.2-49.6 43.2-137.6 0-273.6 0-412.8 0-33.6 0-49.6-14.4-49.6-44.8 0-270.4 0-540.8 0-812.8v-11.2h84.8v12.8c0 33.6 0 68.8 0 102.4 0 20.8 17.6 40 38.4 40 0 0 0 0 1.6 0 86.4 0 172.8 0 259.2 0 20.8 0 40-17.6 40-40v0c0-27.2 0-52.8 0-80 0-11.2 0-24 0-38.4l88 3.2zM213.072 10.304v673.6c-24 0-49.6 0-75.2 0-35.2 0-51.2-12.8-51.2-48 0-190.4 0-384 0-576 0-3.2 0-8 0-11.2 1.6-20.8 19.2-35.2 40-35.2 28.8-3.2 57.6-3.2 86.4-3.2zM896.272 683.904v-672h75.2c35.2 0 51.2 12.8 51.2 48 0 190.4 0 384 0 576 0 3.2 0 8 0 11.2-1.6 19.2-19.2 33.6-40 35.2-27.2 1.6-56 1.6-86.4 1.6zM470.672 11.904h169.6v78.4h-169.6c0-1.6 0-78.4 0-78.4zM448.272 723.904c-8 0-14.4 0-22.4 0-20.8 0-40 17.6-40 40 0 20.8 19.2 38.4 40 38.4 14.4 0 32 0 48 0 20.8 0 40-17.6 40-40s-17.6-40-41.6-40v0c-6.4 1.6-14.4 1.6-24 1.6v0zM662.672 723.904c-8 0-14.4 0-22.4 0-20.8 0-40 17.6-40 38.4s17.6 40 38.4 40c0 0 0 0 1.6 0 14.4 0 30.4 0 44.8 0 20.8 0 40-14.4 40-38.4 0-20.8-14.4-40-38.4-40h-1.6c-8 0-16 0-22.4 0zM449.872 643.904c8 0 14.4 0 22.4 0 20.8 0 40-17.6 40-40s-17.6-40-40-40c-14.4 0-32 0-48 0-20.8 0-40 17.6-40 40 0 20.8 17.6 40 38.4 40 0 0 0 0 1.6 0 9.6 0 19.2 0 25.6 0zM662.672 563.904c-8 0-14.4 0-22.4 0-20.8 0-40 17.6-41.6 40 0 20.8 19.2 40 40 40 14.4 0 30.4 0 44.8 0 20.8 0 40-17.6 40-38.4s-17.6-40-38.4-40c0 0 0 0-1.6 0-6.4-1.6-14.4-1.6-20.8-1.6zM449.872 405.504c-8 0-14.4 0-22.4 0-20.8 0-40 17.6-40 38.4s17.6 40 38.4 40c0 0 0 0 1.6 0 14.4 0 30.4 0 44.8 0 20.8 0 40-14.4 40-38.4 0-20.8-14.4-40-38.4-40h-1.6c-6.4 0-14.4 0-22.4 0zM662.672 405.504c-8 0-14.4 0-22.4 0-20.8 0-40 17.6-40 40 0 20.8 19.2 38.4 40 38.4 14.4 0 32 0 48 0 20.8 0 40-17.6 40-38.4s-17.6-40-38.4-40c-11.2 0-20.8 0-27.2 0v0zM449.872 248.704c-8 0-14.4 0-22.4 0-20.8 0-40 17.6-40 40 0 20.8 19.2 38.4 40 38.4 14.4 0 32 0 48 0 20.8 0 40-17.6 40-38.4s-17.6-40-38.4-40c-11.2-1.6-19.2 0-27.2 0v0zM662.672 325.504c8 0 14.4 0 22.4 0 20.8 0 40-17.6 40-38.4s-17.6-40-38.4-40c0 0 0 0-1.6 0-14.4 0-30.4 0-44.8 0-20.8 0-40 14.4-40 38.4 0 20.8 14.4 40 38.4 40h1.6c6.4 1.6 14.4 0 22.4 0z" />
<glyph unicode="&#xf0c23;" glyph-name="people-meeting" horiz-adv-x="1056" d="M380.8-59.296h-88v99.2c0 43.2 0 91.2 0 132.8 0 19.2-14.4 38.4-38.4 38.4-19.2 0-33.6 0-52.8 0 4.8-91.2 0-185.6 4.8-275.2h-81.6v72c0 57.6 0 110.4 0 168 0 19.2-14.4 38.4-33.6 43.2-24 4.8-43.2 19.2-57.6 33.6-9.6 9.6-16 20.8-22.4 32-8 16-11.2 35.2-11.2 54.4v220.8c19.2 65.6 91.2 110.4 156.8 91.2 14.4-4.8 27.2-8 43.2-19.2 27.2-19.2 48-43.2 57.6-76.8 14.4-33.6 24-65.6 33.6-96 0-4.8 1.6-9.6 8-8 14.4 0 27.2 0 43.2 0 0 4.8 0 8 0 8 0 27.2 0 52.8 0 80 4.8 60.8 57.6 115.2 120 115.2 41.6 0 81.6 0 123.2 0 46.4 1.6 89.6-22.4 115.2-60.8 8-14.4 14.4-33.6 14.4-52.8 0-27.2 0-57.6 0-84.8 14.4 0 27.2 0 43.2 0 4.8 0 4.8 4.8 4.8 4.8 4.8 14.4 8 24 14.4 38.4 6.4 27.2 19.2 56 32 84.8 9.6 17.6 20.8 33.6 35.2 44.8 44.8 35.2 110.4 38.4 160 3.2 6.4-4.8 17.6-12.8 27.2-27.2 8-11.2 19.2-27.2 19.2-46.4v-235.2c0-4.8 0-4.8 0-8-3.2-38.4-43.2-76.8-86.4-91.2-27.2-8-38.4-19.2-38.4-46.4 0-76.8-1.6-163.2-1.6-240h-80c0 91.2-4.8 188.8 4.8 283.2h-38.4c-33.6 0-48-14.4-48-43.2 0-76.8 0-152 0-233.6h-80v230.4c0 65.6 52.8 118.4 118.4 118.4h128c20.8 0 38.4 17.6 38.4 38.4v4.8c0 65.6 0 137.6 0 204.8 0 19.2-8 33.6-27.2 38.4s-41.6 1.6-49.6-12.8c-4.8-8-11.2-25.6-16-35.2-19.2-46.4-33.6-96-52.8-142.4 0-4.8-4.8-8-14.4-8-190.4 0-380.8 0-568 0-4.8 0-8 0-14.4 8-14.4 43.2-27.2 84.8-48 129.6-4.8 19.2-14.4 33.6-24 46.4 3.2 6.4-4.8 14.4-16 14.4-24 4.8-43.2-8-48-33.6 0-4.8 0-4.8 0-8 0-65.6 0-132.8 0-200 0-27.2 14.4-43.2 48-43.2 38.4 0 76.8 0 115.2 0 8 0 22.4-1.6 33.6-3.2 57.6-12.8 96-59.2 96-116.8l-1.6-233.6zM632 455.904v84.8c0 24-19.2 43.2-43.2 43.2v0c-38.4 0-76.8 0-118.4 0-27.2 1.6-43.2-14.4-43.2-33.6v-3.2c0-24 0-52.8 0-76.8 0-4.8 0-11.2 0-14.4h204.8zM116.8 960c-64 0-116.8-52.8-116.8-116.8s52.8-116.8 116.8-116.8 116.8 52.8 116.8 116.8-51.2 116.8-116.8 116.8zM116.8 788.8c-30.4 0-54.4 24-54.4 54.4s24 54.4 54.4 54.4c30.4 0 54.4-24 54.4-54.4 1.6-30.4-24-54.4-54.4-54.4zM528 960c-64 0-116.8-52.8-116.8-116.8s52.8-116.8 116.8-116.8 116.8 52.8 116.8 116.8-52.8 116.8-116.8 116.8zM528 788.8c-30.4 0-54.4 24-54.4 54.4s24 54.4 54.4 54.4c30.4 0 54.4-24 54.4-54.4s-24-54.4-54.4-54.4zM929.6 960c-64 0-116.8-52.8-116.8-116.8s52.8-116.8 116.8-116.8 116.8 52.8 116.8 116.8-52.8 116.8-116.8 116.8zM929.6 788.8c-30.4 0-54.4 24-54.4 54.4s24 54.4 54.4 54.4c30.4 0 54.4-24 54.4-54.4s-24-54.4-54.4-54.4z" />
<glyph unicode="&#xf0c24;" glyph-name="rings" horiz-adv-x="1110" d="M0.496 319.344c4.8 20.8 4.8 38.4 9.6 59.2 44.8 153.6 172.8 257.6 328 272 44.8 4.8 92.8 0 137.6-9.6-4.8 0-4.8-4.8-4.8-4.8-30.4-24-54.4-44.8-78.4-64-4.8-4.8-9.6-9.6-14.4-9.6-137.6 0-256-92.8-280-227.2-14.4-147.2 89.6-281.6 235.2-302.4 4.8 0 4.8 0 9.6 0 152-24 294.4 83.2 318.4 236.8 9.6 68.8-14.4 137.6-59.2 188.8v8c24 14.4 48 24 78.4 30.4 9.6 4.8 14.4 0 20.8-9.6 107.2-158.4 68.8-374.4-92.8-484.8-24-14.4-48-30.4-78.4-38.4-235.2-91.2-480 52.8-524.8 265.6 0 9.6-4.8 24-4.8 35.2v54.4zM1110.896 269.744c-4.8-20.8-4.8-38.4-9.6-54.4-44.8-147.2-172.8-257.6-324.8-272-44.8-4.8-92.8 0-137.6 9.6 4.8 0 4.8 4.8 4.8 4.8 30.4 20.8 54.4 44.8 78.4 68.8 4.8 4.8 9.6 4.8 14.4 4.8 147.2-4.8 270.4 108.8 275.2 251.2 4.8 144-97.6 260.8-241.6 276.8-147.2 24-289.6-68.8-324.8-212.8-14.4-75.2 4.8-153.6 54.4-212.8l4.8-4.8c-24-14.4-54.4-30.4-89.6-35.2-4.8 0-4.8 0-9.6 4.8-30.4 41.6-48 91.2-59.2 139.2-24 177.6 92.8 356.8 275.2 395.2 206.4 54.4 427.2-64 476.8-257.6 4.8-20.8 4.8-38.4 9.6-59.2v-48h3.2zM384.496 740.144c-4.8 0-4.8 4.8-4.8 4.8-38.4 35.2-78.4 68.8-113.6 104-30.4 24-30.4 59.2-9.6 83.2 9.6 14.4 24 20.8 38.4 24 24 4.8 44.8 0 62.4-14.4 9.6-4.8 14.4-14.4 24-24 9.6 6.4 16 16 25.6 20.8 16 16 46.4 22.4 70.4 12.8 24-4.8 44.8-24 44.8-48 4.8-20.8 0-35.2-14.4-48-4.8-4.8-14.4-14.4-24-20.8l-99.2-94.4zM726.896 740.144c-38.4 35.2-78.4 75.2-118.4 108.8-24 20.8-24 54.4-4.8 78.4l4.8 4.8c24 24 68.8 24 92.8 4.8 9.6-4.8 14.4-14.4 24-24 9.6 9.6 14.4 20.8 24 24 20.8 20.8 48 20.8 78.4 9.6 24-9.6 38.4-35.2 35.2-64 0-9.6-4.8-24-14.4-30.4-38.4-33.6-76.8-73.6-121.6-112z" />
<glyph unicode="&#xf0c25;" glyph-name="shop" horiz-adv-x="1090" d="M33.632-64c-4.8 4.8-9.6 4.8-9.6 9.6-4.8 4.8-8 14.4-4.8 24 4.8 11.2 14.4 14.4 25.6 14.4 19.2 0 40 0 59.2 0h14.4v16c0 99.2 0 196.8 0 296 0 9.6 4.8 19.2 9.6 25.6 14.4 9.6 28.8 4.8 40-4.8 0-4.8 4.8-4.8 4.8-9.6s0-9.6 0-14.4c0-99.2 0-196.8 0-289.6v-9.6h78.4v6.4c0 84.8 0 166.4 0 251.2 0 25.6 9.6 33.6 33.6 33.6 67.2 0 132.8 0 201.6 0 25.6 0 33.6-9.6 33.6-33.6 0-84.8 0-166.4 0-251.2v-14.4h412.8v9.6c0 99.2 0 196.8 0 296 0 4.8 0 9.6 0 14.4 4.8 14.4 14.4 25.6 28.8 19.2 14.4 0 25.6-9.6 25.6-25.6 0-4.8 0-4.8 0-9.6 0-99.2 0-192 0-289.6v-14.4h54.4c4.8 0 9.6 0 19.2 0 14.4 0 25.6-4.8 28.8-19.2s-4.8-25.6-14.4-28.8h-4.8l-1036.8-1.6zM304.032-9.6h156.8v241.6h-156.8v-241.6zM859.232 403.2c-54.4-54.4-142.4-59.2-201.6-4.8l-4.8 4.8c-25.6-28.8-64-44.8-104-44.8s-73.6 14.4-104 44.8c-54.4-54.4-142.4-59.2-201.6-4.8-4.8 4.8-4.8 4.8-9.6 9.6 0-4.8-4.8-4.8-4.8-9.6-40-33.6-92.8-48-142.4-28.8-48 14.4-78.4 59.2-84.8 112 0 33.6 0 67.2 0 104 0 14.4 4.8 33.6 19.2 44.8 48 44.8 104 92.8 152 137.6 4.8 4.8 9.6 9.6 9.6 19.2 0 40 0 78.4 0 112 3.2 40 27.2 60.8 65.6 60.8h593.6c30.4 3.2 56-16 65.6-35.2 0-4.8 0-14.4 0-19.2 0-40 0-78.4 0-118.4 0-4.8 4.8-9.6 4.8-14.4 48-48 104-92.8 152-142.4 14.4-9.6 25.6-28.8 19.2-48 0-33.6 0-64 0-99.2 0-54.4-28.8-99.2-78.4-112-48-22.4-107.2-8-145.6 32v0zM107.232 628.8h880c0 0 0 0-4.8 4.8-40 33.6-78.4 67.2-112 104-4.8 4.8-9.6 4.8-14.4 4.8-206.4 0-412.8 0-619.2 0-4.8 0-9.6-4.8-14.4-4.8-25.6-28.8-54.4-59.2-88-88l-27.2-20.8zM248.032 792h600v116.8h-600v-116.8zM475.232 574.4c0-33.6 0-67.2 0-104 4.8-33.6 40-64 73.6-59.2 33.6 0 67.2 25.6 73.6 59.2 0 33.6 0 64 0 99.2 0 0 0 0 0 4.8h-147.2zM67.232 574.4v-4.8c0-28.8 0-59.2 0-88 0-40 33.6-67.2 73.6-67.2v0c40 0 73.6 28.8 73.6 64v0c0 28.8 0 59.2 0 88v4.8l-147.2 3.2zM883.232 574.4c0-4.8 0-4.8 0 0 0-33.6 0-64 0-92.8 4.8-40 40-73.6 78.4-67.2 40 0 67.2 33.6 67.2 67.2 0 28.8 0 59.2 0 84.8v4.8l-145.6 3.2zM681.632 574.4c0-33.6 0-64 0-99.2 4.8-33.6 33.6-64 73.6-64 33.6-4.8 67.2 25.6 73.6 59.2s0 67.2 0 104v0h-147.2zM422.432 574.4h-147.2c0-25.6 0-48 0-73.6 0-9.6 0-19.2 0-28.8 9.6-33.6 40-59.2 73.6-54.4 33.6 0 64 19.2 73.6 54.4 0 28.8 0 64 0 102.4zM726.432 73.6c-33.6 0-73.6 0-107.2 0-19.2 0-33.6 9.6-33.6 28.8 0 48 0 99.2 0 147.2 0 19.2 9.6 28.8 33.6 28.8 73.6 0 142.4 0 216 0 19.2 0 33.6-9.6 33.6-28.8 0-48 0-99.2 0-147.2 0-19.2-9.6-28.8-33.6-28.8-35.2 0-70.4 0-108.8 0zM814.432 232h-166.4v-104h166.4v104z" />
<glyph unicode="&#xf0c43;" glyph-name="sun" d="M48.64 669.12l40 69.44 126.72-72.96c-16-21.6-29.44-44.8-40.32-69.44l-126.4 72.96zM552 960h-80v-147.36c12.96 1.44 25.92 2.24 38.88 2.24 13.76 0 27.36-0.64 40.96-2.24v147.36h0.16zM294.4 744.32c21.6 16 44.96 29.44 69.6 40l-73.28 127.040-69.6-40.32 73.28-126.56zM975.36 669.12l-39.84 69.44-127.84-73.92c15.84-21.6 29.44-44.96 40.32-69.44l127.36 73.92zM145.6 408.16c-1.44 14.56-2.24 26.080-2.24 39.2s0.8 26.080 2.24 40.64h-145.6v-79.84h145.6zM802.72 871.040l-69.6 40.32-73.92-127.84c24.64-10.72 47.84-24.32 69.44-40.32l74.24 127.84zM733.12-15.68l69.6 40.32-73.44 126.72c-21.6-16-44.8-29.44-69.44-40.32l72.96-126.72h0.16zM88.64 157.28l125.6 72.64c-15.84 21.6-29.44 44.96-40.32 69.44l-125.6-72.64s40.32-69.44 40.32-69.44zM1024 408v80h-148c1.44-14.56 2.24-27.2 2.24-40.64 0-13.12-0.8-26.080-2.24-39.2h148v-0.32zM935.36 157.28l40.32 69.6-127.36 73.6c-10.72-24.64-24.16-48-40-69.6l127.040-73.6zM290.72-15.68l72.64 126.24c-24.48 10.88-47.84 24.32-69.6 40l-72.64-126.24 69.6-40zM551.84-63.84v145.6c-13.6-1.44-27.36-2.24-40.96-2.24-12.96 0-25.92 0.64-38.88 2.24v-145.6h79.84zM801.28 448.16c0 160.32-130.080 290.24-290.4 290.24s-290.24-130.080-290.24-290.4c0-160.32 129.92-290.080 290.24-290.24 160.32 0 290.4 129.92 290.4 290.4v0zM717.44 448.16c0-113.92-92.32-206.24-206.24-206.4-113.92 0-206.24 92.32-206.4 206.24 0 113.92 92.32 206.24 206.24 206.4 113.92 0 206.24-92.32 206.4-206.24z" />
<glyph unicode="&#xf0c48;" glyph-name="square-inset" horiz-adv-x="1022" d="M0 448c0 131.2 0 264 0 395.2-3.2 60.8 41.6 112 102.4 116.8 4.8 0 9.6 0 14.4 0h788.8c60.8 3.2 112-41.6 116.8-102.4 0-4.8 0-9.6 0-14.4 0-262.4 0-526.4 0-788.8 3.2-60.8-41.6-112-102.4-116.8-4.8 0-9.6 0-14.4 0h-788.8c-60.8-3.2-112 41.6-116.8 102.4 0 4.8 0 9.6 0 14.4 0 131.2 0 262.4 0 393.6zM934.4 448c0 126.4 0 254.4 0 380.8 0 28.8-12.8 41.6-43.2 41.6h-760c-28.8 0-41.6-12.8-41.6-41.6 0-254.4 0-507.2 0-761.6 0-30.4 12.8-43.2 43.2-43.2h760c30.4 0 43.2 12.8 43.2 43.2-1.6 128-1.6 254.4-1.6 380.8zM243.2 716.8v-24c0-48 0-96 0-144 1.6-24-17.6-43.2-40-43.2-24-1.6-43.2 17.6-43.2 40 0 1.6 0 1.6 0 3.2 0 70.4 0 139.2 0 209.6-1.6 22.4 16 41.6 38.4 43.2 1.6 0 3.2 0 3.2 0 68.8 0 139.2 0 208 0 24 0 41.6-19.2 41.6-41.6 0-24-19.2-41.6-41.6-41.6-51.2 0-100.8 0-152 0l-14.4-1.6zM785.6 716.8c-57.6 0-112 0-166.4 0-22.4-1.6-43.2 16-44.8 40 0 6.4 0 11.2 3.2 17.6 4.8 16 20.8 27.2 38.4 27.2 72 0 142.4 0 214.4 0 22.4 0 40-17.6 40-40 0-72 0-142.4 0-214.4 0-24-19.2-41.6-43.2-41.6s-41.6 19.2-41.6 43.2c0 51.2 0 102.4 0 153.6v14.4zM243.2 171.2c57.6 0 112 0 168 0 22.4 0 43.2-17.6 43.2-40 0-6.4-1.6-11.2-3.2-17.6-4.8-16-20.8-27.2-38.4-27.2-72 0-142.4 0-214.4 0-22.4 0-41.6 19.2-41.6 41.6 0 0 0 0 0 0 0 70.4 0 142.4 0 212.8 0 24 19.2 41.6 43.2 41.6s41.6-19.2 41.6-43.2v0c0-51.2 0-102.4 0-153.6l1.6-14.4zM785.6 171.2v16c0 49.6 0 100.8 0 150.4-1.6 24 16 43.2 40 44.8s43.2-16 44.8-40c0-1.6 0-3.2 0-4.8 0-68.8 0-137.6 0-206.4 1.6-22.4-16-43.2-40-44.8-1.6 0-3.2 0-4.8 0-68.8 0-137.6 0-206.4 0-24-1.6-43.2 16-44.8 40s16 43.2 40 44.8c1.6 0 4.8 0 6.4 0 52.8 0 107.2 0 164.8 0z" />
<glyph unicode="&#xf0c50;" glyph-name="warning" horiz-adv-x="1120" d="M1120.438 120.11c-3.507-14.027-5.26-29.808-10.521-43.836-29.808-87.671-101.699-140.274-196.384-140.274-156.055 0-312.11 0-468.164 0-80.658 0-159.562 0-240.219 0-63.123 0-117.479 22.795-157.808 73.644-50.849 63.123-61.37 135.014-26.301 208.658 29.808 61.37 66.63 119.233 99.945 178.849 87.671 152.548 175.342 305.096 263.014 455.89 31.562 56.11 78.904 91.178 142.027 103.452 71.89 14.027 157.808-19.288 196.384-80.658 42.082-66.63 80.658-135.014 119.233-203.397 80.658-140.274 163.068-282.301 243.726-422.575 17.534-29.808 29.808-61.37 35.068-96.438 0-10.521 0-22.795 0-33.315zM559.342 27.178c117.479 0 234.959 0 352.438 0 17.534 0 36.822 3.507 54.356 10.521 59.616 26.301 82.411 96.438 49.096 156.055-36.822 63.123-73.644 128-110.466 191.123-82.411 142.027-163.068 282.301-245.479 424.329-14.027 24.548-31.562 43.836-57.863 52.603-52.603 19.288-106.959 0-136.767-50.849-94.685-163.068-187.616-326.137-282.301-489.205-26.301-45.589-54.356-91.178-78.904-138.521-19.288-36.822-15.781-73.644 7.014-108.712s56.11-49.096 96.438-49.096c117.479 1.753 234.959 1.753 352.438 1.753zM617.205 576c-5.26-77.151-8.767-152.548-14.027-229.699 0-10.521 0-22.795-1.753-33.315-3.507-21.041-21.041-35.068-42.082-33.315-21.041 0-38.575 14.027-40.329 35.068-3.507 28.055-3.507 57.863-5.26 87.671-3.507 57.863-7.014 115.726-10.521 173.589-3.507 49.096 40.329 84.164 82.411 64.877 26.301-12.274 33.315-36.822 31.562-64.877zM503.233 183.233c0 31.562 26.301 57.863 57.863 56.11 31.562 0 56.11-26.301 54.356-57.863 0-31.562-26.301-56.11-56.11-56.11s-56.11 26.301-56.11 57.863z" />
<glyph unicode="&#xf0c52;" glyph-name="newspaper" horiz-adv-x="1134" d="M0 958.56v-851.040c0.362-93.787 76.293-169.718 170.045-170.080h793.955c93.823 0.272 169.808 76.257 170.080 170.054v624.026h-113.44v-621.6c0.007-0.342 0.011-0.745 0.011-1.149 0-28.456-20.578-52.106-47.664-56.881l-0.347-0.051c-2.595-0.425-5.586-0.668-8.634-0.668-27.691 0-50.702 20.042-55.317 46.411l-0.049 0.337c-0.114 1.508-0.178 3.267-0.178 5.040s0.065 3.532 0.192 5.273l-0.014-0.233v850.56zM113.44 845.12h680.48v-737.6c-0.011-0.477-0.017-1.038-0.017-1.601 0-21.601 8.955-41.11 23.355-55.017l0.022-0.021h-647.2c-31.245 0.091-56.549 25.395-56.64 56.631v0.009zM226.88 590.56h453.6v141.12h-453.76zM226.88 240.48h453.6v-66.080h-453.6v66.080zM226.88 367.68h453.6v-66.080h-453.6v66.080zM226.88 494.88h453.6v-66.080h-453.6v66.080z" />
<glyph unicode="&#xf0c57;" glyph-name="options" horiz-adv-x="1209" d="M608.354 772.959c32.118 130.362 139.808 188.93 232.384 187.041 94.465-1.889 196.487-64.236 224.827-187.041 32.118 0 64.236 0 96.354 0 34.007 0 56.679-34.007 43.454-64.236-7.557-18.893-24.561-28.339-45.343-28.339-32.118 0-62.347 0-94.465 0-15.114-64.236-49.122-115.247-105.801-151.144-41.565-26.45-86.908-37.786-136.030-35.897-88.797 5.668-185.151 64.236-215.38 185.151-5.668 0-11.336 0-17.004 0-179.483 0-357.077 0-536.561 0-7.557 0-15.114 0-22.672 1.889-20.782 9.446-34.007 30.229-32.118 52.9s20.782 39.675 43.454 41.565c5.668 0 9.446 0 15.114 0 177.594 0 355.188 0 530.893 0 5.668-1.889 11.336-1.889 18.893-1.889zM697.151 727.616c0-77.461 62.347-139.808 139.808-139.808s139.808 62.347 139.808 139.808c0 77.461-62.347 139.808-139.808 139.808-75.572 0-139.808-62.347-139.808-139.808zM143.587 123.041c-30.229 0-60.458 0-90.686 0s-51.011 18.893-51.011 47.232c0 28.339 20.782 47.232 51.011 47.232s58.568 0 88.797 0c0 0 1.889 0 3.779 1.889 13.225 58.568 45.343 107.69 96.354 143.587 43.454 30.229 90.686 43.454 143.587 41.565 100.133-5.668 190.819-73.683 217.269-185.151 5.668 0 11.336 0 17.004 0 181.373 0 360.856 0 542.229 0 35.897 0 58.568-30.229 47.232-62.347-7.557-18.893-20.782-28.339-39.675-30.229-5.668 0-9.446 0-15.114 0-177.594 0-355.188 0-532.782 0-5.668 0-11.336 0-18.893 0-15.114-60.458-45.343-109.579-96.354-145.476-39.675-28.339-85.018-41.565-136.030-41.565-86.908-1.889-192.708 51.011-226.716 183.262zM372.192 308.192c-77.461 0-139.808-62.347-139.808-139.808s62.347-139.808 139.808-139.808c77.461 0 139.808 62.347 139.808 139.808s-62.347 139.808-139.808 139.808z" />
</font>
</defs>
</svg>
