<svg
    xmlns="http://www.w3.org/2000/svg"
    width="1634.667"
    height="1518.667"
    version="1"
    viewBox="0 0 1226 1139"
>
    <path
    d="M5930 11229c-775-42-1504-235-2202-584-103-52-205-105-227-119-22-15-43-26-45-26s-62-35-133-78c-564-343-1047-770-1484-1312-315-390-618-913-813-1401-219-548-347-1125-386-1734-25-387 3-879 72-1270 10-60 23-134 28-163 25-149 124-516 191-707 357-1033 968-1896 1834-2590 464-372 1060-698 1641-898 342-118 755-215 1089-256 223-27 274-31 494-42 236-12 599-2 796 22 203 24 267 33 370 50 525 86 1025 247 1510 484 739 360 1332 825 1872 1466 304 360 602 839 806 1294 344 770 515 1645 477 2457-14 313-36 528-76 763-279 1638-1288 3080-2734 3910-934 537-2007 792-3080 734zm620-389c868-51 1716-324 2450-789 1138-719 1953-1841 2280-3139 43-170 76-342 109-567 38-254 58-722 42-990-68-1160-496-2223-1247-3106-124-145-414-435-564-563C8637 845 7389 401 6100 434c-206 5-510 30-625 50-16 3-73 13-126 21s-127 22-165 30c-38 9-89 20-114 25-317 65-748 216-1085 379-419 203-769 429-1120 722-144 121-439 413-570 564-615 711-1037 1595-1195 2500-58 334-74 530-74 935-1 372 4 444 50 760 83 572 285 1175 567 1695 338 623 805 1177 1362 1616 505 399 1076 700 1680 886 608 187 1225 261 1865 223z"
    transform="matrix(.1 0 0 -.1 0 1139)"
    ></path>
    <path
    d="M6200 8713c-67-10-108-38-339-232-350-293-1299-1089-1407-1180-50-42-140-117-200-167-60-51-237-199-394-331-157-131-429-359-605-506-341-285-376-323-390-413-15-105 58-223 160-257 85-29 153-18 228 36 25 18 177 143 339 279 161 135 581 488 933 783s651 547 665 559c29 25 420 353 779 653 140 117 258 213 261 213s121-96 261-213c359-300 750-628 779-653 14-12 313-264 665-559s772-648 934-783c161-136 309-259 329-274 106-82 236-74 332 22 40 40 65 109 64 175-1 44-31 118-60 150-16 18-388 331-1134 956-102 85-241 202-309 259-68 58-140 118-160 135-48 40-1240 1039-1415 1186-171 144-230 174-316 162z"
    transform="matrix(.1 0 0 -.1 0 1139)"
    ></path>
    <path
    d="M6163 7317c-30-11-102-68-389-309-476-399-732-614-935-785-130-109-416-349-636-533-230-192-412-352-427-375l-26-39V3987c0-933 3-1294 11-1310 17-33 60-77 94-95 27-15 110-17 882-20l853-3 2 758c3 853-2 794 81 873 72 69 87 71 578 68 422-3 435-4 474-24 51-28 91-68 119-119 21-40 21-44 24-798l3-758 852 3c772 3 855 5 882 20 34 18 77 62 94 95 8 16 11 377 11 1310v1289l-26 39c-16 24-287 259-671 580-354 297-766 643-916 768-668 561-768 642-799 653-42 16-94 16-135 1zm602-1553c25-13 51-39 70-69l30-48 3-474c2-330-1-486-9-516-16-61-82-122-149-136-72-15-905-15-967 1-59 14-127 78-142 133-16 59-15 944 1 999 15 49 71 108 118 123 24 8 186 11 520 10 471-2 486-3 525-23z"
    transform="matrix(.1 0 0 -.1 0 1139)"
    ></path>
</svg>