<svg
    xmlns="http://www.w3.org/2000/svg"
    width="1269.333"
    height="1129.333"
    version="1"
    viewBox="0 0 952 847"
>
    <path
    d="M6297 6166c17-8 36-23 41-33 6-12 5-92-5-233-17-256-14-340 15-396 26-50 81-100 141-127 55-25 214-35 276-18 94 25 170 98 194 187 8 31 41 440 41 515 0 26 25 50 60 59 33 8 33 8-16 9-28 1-80 3-115 5-35 3-54 3-43 0 12-3 30-14 40-25 17-18 17-33 5-257-8-130-20-262-28-292-28-111-121-180-241-180-81 0-131 15-177 52-84 70-95 141-72 476 15 209 22 242 53 242 8 0 14 5 14 10 0 6-29 10-67 10s-86 3-108 6l-40 5 32-15zM5775 6126c-83-21-88-23-57-30 18-4 39-17 46-29 13-21 140-546 134-552-2-2-185 102-408 231s-408 234-412 234c-3 0 4-30 16-67 13-38 54-200 91-360 74-316 75-335 25-360-14-7-18-13-10-13 26 1 196 48 174 49-53 2-62 22-130 310-35 150-63 276-61 278 3 2 183-100 402-227 218-127 403-234 411-237 10-4 9 9-7 54-25 71-159 633-159 666 0 26 16 49 45 65 29 17 3 13-100-12zM7470 6019c23-16 36-34 38-52 5-40-195-638-220-659-11-10-32-18-47-19-24 0 429-159 455-159 6 0 39 34 73 75 62 74 72 103 16 45-40-41-104-64-157-56-65 10-240 69-245 83-5 13 84 292 97 307 11 12 224-61 244-83 11-12 15-28 11-47-3-16 8 9 25 56 17 46 28 89 26 95-2 5-5 2-5-7-1-10-12-25-26-34-23-15-30-14-137 21-62 21-116 39-120 41-6 4 89 303 101 316 4 5 67-12 141-37 147-49 176-69 166-117-9-47 1-32 23 34 23 68 19 78-31 78-21 0-272 77-448 138-8 3 1-6 20-19zM4568 5746c-20-17-117-75-217-129-173-94-226-129-161-104 57 22 70 5 242-308 170-312 172-318 122-362-14-13-23-23-20-23s109 57 235 126c192 105 231 130 230 148 0 11-6 57-14 101-12 76-13 77-14 30-2-57-27-120-62-151-26-24-220-134-235-134-9 0-169 289-163 294 20 17 213 116 226 116 9 0 28-10 41-22 22-20 20-14-13 47-47 86-57 98-49 59 4-21 1-36-10-46-17-17-199-118-213-118-7 0-155 262-160 285-4 14 242 145 272 145 15 0 37-11 52-27 25-27 25-27-6 34-17 34-34 64-38 66-5 3-24-9-45-27zM3795 5253c-49-46-80-79-68-74 28 14 45 14 66-1 15-11 239-608 232-616-2-2-132 56-290 129-307 141-329 156-306 206 9 19-10 6-66-44-43-39-87-81-98-93l-20-23 34 18c21 11 45 15 63 11 16-3 192-74 391-157s367-154 374-156c7-3 4 15-9 49-50 132-238 726-238 753 0 17 7 41 16 53 31 45 8 29-81-55zM2991 4405c-63-108-76-136-41-92 42 53 52 50 316-105 134-79 244-145 244-148s-203-63-450-135c-247-71-450-132-450-135s25-18 57-34c96-47 567-327 586-348 20-23 23-68 5-86-6-6-10-14-7-16 4-5 129 196 129 207 0 3-13-8-29-24s-37-29-47-29c-16 0-518 289-512 295 2 2 201 60 443 129 242 70 447 129 455 132 9 3-20 24-75 53-114 60-534 308-557 329-20 17-24 63-8 93 6 10 9 19 6 19-2 0-31-47-65-105zM2426 3288c-3-12-7-42-10-65-4-23-29-126-57-229-28-102-48-188-45-191 3-4 6 0 6 9 0 21 43 58 68 58 26 0 609-156 638-171 28-14 45-53 39-87-12-62 10 12 74 247l67 250-25 18c-14 10-51 36-81 58l-55 40 34-39c70-82 76-132 30-298-16-62-31-113-32-115-4-3-315 81-321 88-6 6 46 206 63 237 7 13 23 22 44 24 26 2 17 7-52 26-46 12-86 20-88 18-3-2 5-7 16-11 42-13 44-37 10-163-18-64-33-118-34-120-3-3-317 79-324 85-2 1 13 66 34 143 41 149 55 174 105 172 54-1 35 8-72 33-23 6-28 3-32-17zM2257 2400c-7-53-18-268-11-228 3 15 19 39 36 53 26 22 37 25 77 20 25-3 172-15 326-26 303-22 303-22 330-84l13-30 1 41c1 22 3 83 6 135 4 73 3 87-5 62-21-67-24-67-357-44-164 12-312 24-329 27-47 7-67 27-74 75l-6 44-7-45zM2710 1840c-87-30-160-124-160-209 0-29-12-26-35 11-28 44-96 78-157 78-117 0-200-78-215-201-3-27 2-119 12-204 18-149 19-153 32-117 7 20 13 38 13 39 1 15 105 34 420 73 419 53 426 53 456-12l15-33-6 40c-3 22-12 99-20 170-23 188-45 256-103 314-72 72-148 87-252 51zm188-94c41-22 80-67 96-112 14-42 33-194 23-194-3 0-189-23-413-50-224-28-409-49-411-47-11 12-14 138-4 170 15 45 68 92 118 106 117 33 210-12 247-119l15-45 1 51c1 117 61 219 143 243 50 14 155 13 185-3z"
    transform="matrix(.1 0 0 -.1 0 847)"
    ></path>
</svg>