<svg
    xmlns="http://www.w3.org/2000/svg"
    width="26846"
    height="17703"
    fill="#000000"
    viewBox="0 0 26846 17703"
>
    <path
    d="M0 17800.1v-508.5h1322.4c262.6 0 393.9-131.9 393.9-395.6v-5311.8h2307.16V17009h5599.08c487.66 0 750.26-207.2 787.86-621.6l422-3305.7h647.1v1327.9c0 1657.6 84.4 2872.5 253.2 3644.8-600.2-169.5-1641.2-254.3-3123.06-254.3H0zM16745.1 16896c0 263.7 131.3 395.6 394 395.6h1885.1v508.5h-6302.5v-508.5h1322.4c262.6 0 393.9-131.9 393.9-395.6v-5311.8h2307.1V16896zM25326.7 17206.8c281.3 0 506.4-113 675.2-339 187.6-244.9 281.4-527.5 281.4-847.7 0-339-28.2-649.8-84.4-932.4l534.6-84.7c75 282.5 112.5 593.3 112.5 932.4 0 678.1-206.3 1214.9-619 1610.5-393.9 395.5-909.7 593.3-1547.5 593.3-1594.4 0-2391.5-970.1-2391.5-2910.2 0-1542.2-154.1-2757.2-462.3-3644.8h2101.8c27.7 73.8 53.3 149.2 76.8 226.1 281.3 960.6 422 2100.2 422 3418.7s300.1 1977.8 900.4 1977.8zM1716.3 847.626c0-226.033-131.3-339.05-393.9-339.05H0V0h5739.76v508.576H4417.37c-262.61 0-393.91 113.017-393.91 339.05V6781H1716.3V847.626zM14438 847.626c0-226.033-131.3-339.05-393.9-339.05h-1322.4V0h7005.9c1575.6 0 2916.7 433.231 4023.4 1299.69 1106.7 866.46 1660.1 2024.89 1660.1 3475.27 0 740.66-147.2 1409.34-441.4 2006.04H22712c298.8-602.5 448.2-1271.18 448.2-2006.04 0-1073.66-318.9-2006.05-956.7-2797.17-618.9-791.11-1491.2-1186.673-2616.6-1186.673h-2841.8V6781H14438V847.626z"
    ></path>
    <path
    d="M8738.12 7838.33c0 97.95-120.21 286.27-360.63 564.95-239.05 278.67-471.91 501.48-698.59 668.41-171.73 378.01-348.96 653.93-531.68 827.76-182.71 173.85-429.32 300.75-739.8 380.75 546.78 146.3 873.75 231.1 980.91 254.6 108.54 24.8 212.26 37.2 311.18 37.2 142.87 0 272.01-51.7 387.42-155.2 12.36-6.9 19.92-10.3 22.66-10.3 6.87 2.7 10.99 6.2 12.37 10.3 0 22.1-36.41 58.6-109.22 109.7-134.64 92.4-330.41 138.6-587.31 138.6-188.22 0-369.57-17.9-544.04-53.8-174.48-35.8-440.31-111-797.51-225.5-229.43 45.5-465.73 68.2-708.9 68.2-431.38 0-647.07-66.2-647.07-198.6 0-124.2 164.86-186.3 494.58-186.3 255.53 0 636.77 66.3 1143.71 198.7 151.12-59.3 285.07-146.9 401.85-262.8 118.15-117.28 266.52-311.11 445.12-581.51-409.4 358.69-792.02 538.04-1147.84 538.04-241.79 0-434.82-71.74-579.07-215.22-142.88-143.47-214.32-337.31-214.32-581.5 0-373.87 175.85-728.42 527.56-1063.67 353.07-335.24 726.07-502.86 1118.98-502.86 181.35 0 325.6 46.91 432.76 140.72 108.53 93.81 162.8 220.73 162.8 380.77 0 282.82-131.89 575.29-395.67 877.42-263.77 302.13-518.62 453.2-764.53 453.2-104.41 0-193.03-33.11-265.84-99.33-71.44-66.22-107.16-147.62-107.16-244.19 0-74.5 22.67-138.65 68.01-192.45 46.71-55.19 101.66-82.78 164.86-82.78 85.17 0 127.76 42.08 127.76 126.23 0 45.53-16.48 86.23-49.46 122.1-32.97 34.49-70.06 51.73-111.28 51.73-67.31 0-99.6-31.04-96.85-93.12 1.37-40.01-3.44-60.01-14.43-60.01-30.22 0-45.33 42.77-45.33 128.3 0 86.92 32.28 159.34 96.85 217.29 65.95 57.94 147.69 86.91 245.23 86.91 226.68 0 467.79-148.3 723.32-444.92 256.91-297.99 385.36-578.74 385.36-842.24 0-142.1-48.77-258.68-146.31-349.73-96.17-92.43-219.81-138.65-370.93-138.65-364.07 0-713.02 182.8-1046.86 548.39-332.47 365.59-498.71 746.36-498.71 1142.31 0 186.24 59.08 332.48 177.23 438.71 119.52 106.23 283.01 159.34 490.46 159.34 178.6 0 355.82-44.14 531.67-132.44 177.22-88.29 394.98-242.12 653.26-461.47 215.69-362.84 372.31-614.62 469.85-755.33 93.42-135.21 205.39-271.79 335.9-409.75 254.16-267.64 448.56-401.46 583.19-401.46 56.33 0 84.49 24.83 84.49 74.5zm-35.03 0c0-30.35-16.49-45.53-49.46-45.53-101.66 0-241.11 104.16-418.33 312.48-157.99 186.25-333.84 487.69-527.55 904.33 234.92-191.77 459.55-413.19 673.86-664.28 214.32-252.46 321.48-421.47 321.48-507zM6015.87 10365.1c-482.21-153.2-809.87-229.7-982.97-229.7-179.98 0-269.96 40-269.96 120 0 107.6 210.88 161.4 632.65 161.4 228.05 0 434.82-17.2 620.28-51.7z"
    ></path>
    <path
    d="M9267.73 9806.33c0 31.73-99.6 165.55-298.8 401.47-164.86 195.9-295.38 293.8-391.55 293.8-60.44 0-111.96-24.1-154.55-72.4-41.22-49.6-61.82-109-61.82-178 0-53.8 26.79-128.9 80.36-225.5l-41.21 55.9c-126.39 162.8-219.13 271.7-278.2 326.9-64.57 62.1-125.71 93.1-183.41 93.1-60.45 0-111.28-23.4-152.49-70.3-41.22-48.3-61.83-106.9-61.83-175.9 0-80 30.92-171.8 92.74-275.24l375.05-633.24c46.71 9.66 83.12 14.49 109.22 14.49 26.11 0 72.82-4.83 140.13-14.49l-490.45 811.18c-49.46 82.8-74.19 155.9-74.19 219.4 0 62.1 26.1 93.1 78.31 93.1 138.76 0 361.32-260.1 667.68-780.16l201.95-343.52c42.59 9.66 78.31 14.49 107.16 14.49 34.35 0 83.12-4.83 146.32-14.49l-329.72 540.11c-156.62 256.57-234.93 421.47-234.93 494.57 0 59.3 28.16 89 84.49 89 109.91 0 288.51-173.8 535.8-521.48l63.88-88.99 37.09-45.52c6.87-13.8 13.74-20.7 20.61-20.7 8.24 0 12.36 4.14 12.36 12.42z"
    ></path>
    <path
    d="M10291.9 9806.33c0 17.93-96.8 133.82-290.5 347.67-211.61 231.8-391.58 347.6-539.95 347.6-96.17 0-178.6-36.5-247.29-109.6-68.7-74.5-103.04-162.8-103.04-264.9 0-115.9 46.71-235.93 140.13-360.09 93.42-124.17 219.13-231.08 377.12-320.76 133.26-77.26 241.79-115.88 325.59-115.88 101.64 0 152.54 60.7 152.54 182.1 0 95.2-32.3 190.39-96.9 285.58-63.19 95.19-126.39 142.79-189.58 142.79-61.83 0-92.74-31.04-92.74-93.12 0-73.12 63.2-140.72 189.59-202.81 97.53-48.28 146.33-111.74 146.33-190.38 0-62.08-33.7-93.12-100.99-93.12-114.03 0-254.16 113.81-420.4 341.45-166.23 227.63-249.35 418.74-249.35 573.24 0 129.7 60.45 194.5 181.35 194.5 189.59 0 446.5-214.5 770.69-643.58 17.9-22.07 30.9-33.11 39.2-33.11 5.5 1.38 8.2 5.52 8.2 12.42z"
    ></path>
    <path
    d="M10967.9 8949.6c0 48.28-20.7 93.81-61.9 136.58-39.8 41.38-83.8 62.08-131.9 62.08-61.8 0-92.7-31.04-92.7-93.12 0-45.53 21.3-88.99 63.9-130.38 42.6-42.76 87.2-64.15 133.9-64.15 59.1 0 88.7 29.66 88.7 88.99zm28.8 856.73c-1.4 4.14-8.2 15.17-20.6 33.11l-88.6 122.09c-258.3 360.07-455.4 540.07-591.5 540.07-64.5 0-118.8-22.7-162.8-68.2-42.5-47-63.8-104.9-63.8-173.9 0-80 47.4-201.4 142.2-364.19l321.4-548.39c42.6 9.66 76.3 14.49 101 14.49 37.1 0 89.3-4.83 156.6-14.49l-467.8 771.88c-67.3 111.8-100.9 198-100.9 258.7 0 62.1 32.2 93.1 96.8 93.1 122.3 0 337.3-218.7 645-655.99 6.9-13.8 13.8-20.7 20.6-20.7 8.3 0 12.4 4.14 12.4 12.42z"
    ></path>
    <path
    d="M12082.7 8339.12c-577 964.34-913.6 1531.36-1009.7 1701.08-94.8 169.7-142.2 282.1-142.2 337.3 0 62.1 26.1 93.1 78.3 93.1 115.4 0 326.9-218.7 634.7-655.99 6.8-13.8 15.1-20.7 24.7-20.7 5.5 1.38 8.2 5.52 8.2 12.42 0 8.28-6.8 19.31-20.6 33.11l-88.6 122.09c-259.6 360.07-451.3 540.07-574.9 540.07-59.1 0-107.9-22-146.3-66.2-37.1-45.5-55.7-102.8-55.7-171.7 0-75.9 17.2-149 51.5-219.4 35.8-71.73 155.3-277.29 358.6-616.67 248.7-415.26 458.2-775.34 628.5-1080.23 41.3 11.04 77.7 16.56 109.3 16.56 52.2 0 100.3-8.28 144.2-24.84z"
    ></path>
    <path
    d="M12715.4 9806.33c0 4.14-12.4 22.07-37.1 53.8l-88.6 111.75c-284.4 353.22-528.3 529.72-731.6 529.72-96.2 0-177.2-34.4-243.2-103.4-64.5-70.4-96.8-158-96.8-262.8 0-248.37 172.4-467.03 517.2-656.04 181.4-99.33 329.1-148.99 443.1-148.99 49.4 0 91.3 15.17 125.7 45.52 35.7 28.97 53.6 64.84 53.6 107.61 0 99.33-64.6 184.18-193.7 254.54-129.2 68.98-344.9 133.82-647.1 194.52-93.4 142.14-140.2 260.74-140.2 355.94 0 118.6 63.9 178 191.7 178 217.1 0 482.9-213.2 797.5-639.48 16.5-22.07 30.2-33.11 41.2-33.11 5.5 1.38 8.3 5.52 8.3 12.42zm-173.1-382.84c0-44.15-24.1-66.22-72.2-66.22-72.8 0-168.9 51.04-288.5 153.13-118.1 100.71-234.2 231.78-348.2 393.19 197.8-51.05 365.4-122.79 502.8-215.22 137.4-93.81 206.1-182.11 206.1-264.88zM18205.2 8301.87c0 71.74-9.6 150.38-28.9 235.92-19.2 85.53-37.7 128.3-55.6 128.3-13.7 0-20.6-6.9-20.6-20.7 0-4.13 1.4-10.34 4.1-18.62 37.1-96.57 55.7-200.73 55.7-312.48 0-173.83-51.6-313.17-154.6-418.02-103-106.23-239-159.34-408-159.34-232.2 0-467.1 75.19-704.8 225.56 203.3 162.8 305 339.38 305 529.77 0 161.41-64.6 299.37-193.7 413.88-127.8 113.13-296.8 182.8-507 209.01 142.9 82.77 214.4 202.8 214.4 360.07 0 104.85-36.4 264.2-109.3 478.03-48 140.75-72.1 251.05-72.1 331.15 0 82.7 29.5 152.4 88.6 209 59.1 57.9 131.2 86.9 216.4 86.9 87.9 0 171-29.7 249.4-89 17.8-11 30.2-16.6 37-16.6 11 0 16.5 5.6 16.5 16.6 0 23.5-38.4 50.4-115.4 80.7-76.9 31.7-143.5 47.6-199.9 47.6-131.8 0-242.4-53.1-331.7-159.3-89.3-104.9-134-235.3-134-391.2 0-113.09 49.5-312.44 148.4-598.02 24.7-73.11 37.1-135.2 37.1-186.24 0-64.84-26.8-120.03-80.4-165.55-87.9 8.27-138.1 12.41-150.4 12.41-136 0-204-17.24-204-51.73 0-22.07 34.3-33.11 103-33.11 81.1 0 162.1 15.86 243.2 47.59 163.5-26.21 297.4-102.09 401.8-227.63 104.4-126.92 156.6-275.92 156.6-446.99 0-135.2-52.2-264.88-156.6-389.05l-20.6-26.9c-300.9 226.26-585.2 620.82-853.1 1183.7-162.2 340.76-310.5 586.33-445.2 736.7-134.6 150.42-323.5 286.22-566.7 407.72-287.1 140.7-543.3 211-768.6 211-184.1 0-337.3-42-459.6-126.2-122.3-85.5-183.4-191.8-183.4-318.7 0-70.3 20.6-131.05 61.8-182.09 42.6-51.05 92.8-76.57 150.5-76.57 83.8 0 125.7 46.9 125.7 140.72 0 46.94-14.4 86.94-43.3 120.04-27.5 33.1-61.8 49.6-103 49.6-71.5 0-105.8-37.2-103.1-111.7 1.4-30.4-1.3-45.53-8.2-45.53-22 0-33 36.53-33 109.73 0 114.5 55.7 209.7 166.9 285.5 112.7 75.9 254.2 113.8 424.5 113.8 300.9 0 573.6-111.7 818.2-335.2 107.1-97.9 198.5-197.97 274-300.06 82.5-110.37 262.4-378.01 540-802.93 138.7-209.7 302.2-420.08 490.4-631.16 188.2-211.08 348.3-362.15 480.2-453.2-214.3-183.49-529-275.23-943.9-275.23-579.7 0-1083.9 210.39-1512.5 631.17-351.7 344.89-527.6 669.79-527.6 974.68 0 154.52 49.5 277.3 148.4 368.35 98.9 91.06 232.8 136.59 401.8 136.59 276.2 0 561.2-133.14 855.2-399.4 295.4-266.26 443.1-524.94 443.1-776.02 0-200.05-102.4-300.07-307.1-300.07-204.7 0-424.5 115.2-659.4 345.59-233.5 229.02-350.3 444.23-350.3 645.66 0 49.66 16.5 92.43 49.4 128.3 33 35.87 71.5 53.8 115.4 53.8 23.4 0 35.1 6.21 35.1 18.63 0 11.03-13.1 16.55-39.2 16.55-65.9 0-121.6-29.66-166.9-88.98-45.3-60.7-68-134.51-68-221.43 0-215.21 117.5-424.91 352.4-629.09 234.9-204.18 476-306.28 723.3-306.28 236.3 0 354.5 109.68 354.5 329.04 0 267.64-150.5 538.04-451.4 811.2-300.8 273.16-597.6 409.74-890.2 409.74-191 0-344.1-57.25-459.5-171.76-114.1-115.88-171.1-270.4-171.1-463.54 0-390.43 219.1-746.36 657.4-1067.81 439.6-322.83 925.3-484.24 1456.9-484.24 404 0 743.3 90.36 1018.1 271.09 251.4-157.27 494.5-235.91 729.5-235.91 184.1 0 331.7 55.18 443 165.55 112.7 110.37 169 255.92 169 436.64z"
    ></path>
    <path
    d="M18403 9806.33c0 4.14-12.3 22.07-37.1 53.8l-88.6 111.75c-284.4 353.22-528.2 529.72-731.5 529.72-96.2 0-177.3-34.4-243.2-103.4-64.6-70.4-96.9-158-96.9-262.8 0-248.37 172.5-467.03 517.3-656.04 181.3-99.33 329-148.99 443-148.99 49.5 0 91.4 15.17 125.8 45.52 35.7 28.97 53.5 64.84 53.5 107.61 0 99.33-64.5 184.18-193.7 254.54-129.1 68.98-344.8 133.82-647.1 194.52-93.4 142.14-140.1 260.74-140.1 355.94 0 118.6 63.9 178 191.7 178 217 0 482.9-213.2 797.5-639.48 16.5-22.07 30.2-33.11 41.2-33.11 5.5 1.38 8.2 5.52 8.2 12.42zm-173.1-382.84c0-44.15-24-66.22-72.1-66.22-72.8 0-169 51.04-288.5 153.13-118.2 100.71-234.2 231.78-348.3 393.19 197.9-51.05 365.5-122.79 502.9-215.22 137.3-93.81 206-182.11 206-264.88z"
    ></path>
    <path
    d="M20274.2 8359.82c-515.2 822.24-840.1 1347.87-974.7 1576.88-136.1 233.2-204.1 380.1-204.1 440.8 0 62.1 28.2 93.1 84.5 93.1 125.1 0 337.3-218.7 636.8-655.99 8.2-13.8 15.8-20.7 22.7-20.7 8.2 0 12.3 4.14 12.3 12.42-1.3 4.14-8.2 15.17-20.6 33.11l-88.6 122.09c-259.6 360.07-451.3 540.07-574.9 540.07-63.2 0-114.7-23.4-154.6-70.3-39.8-48.3-59.7-109.7-59.7-184.2 0-74.5 24.7-160.7 74.1-258.67-240.4 342.17-419 513.17-535.8 513.17-72.8 0-133.9-31-183.4-93.1-49.4-63.4-74.1-142.8-74.1-238 0-227.59 140.8-433.84 422.4-618.71 223.9-147.62 399.8-221.42 527.6-221.42 85.1 0 127.7 41.38 127.7 124.16 0 38.63-11.7 82.09-35 130.37l735.7-1237.5c45.3 13.8 90 20.7 133.9 20.7 11 0 53.6-2.76 127.8-8.28zm-993.3 1111.26c0-73.11-33.6-109.67-101-109.67-123.6 0-287.1 124.16-490.4 372.49-202 246.95-303 446.3-303 598.1 0 92.4 37.8 138.6 113.4 138.6 109.9 0 298.8-191.8 566.7-575.29 142.9-206.94 214.3-348.35 214.3-424.23z"
    ></path>
    <path
    d="M20533.8 8949.6c0 48.28-20.6 93.81-61.8 136.58-39.8 41.38-83.8 62.08-131.9 62.08-61.8 0-92.7-31.04-92.7-93.12 0-45.53 21.3-88.99 63.9-130.38 42.6-42.76 87.2-64.15 133.9-64.15 59.1 0 88.6 29.66 88.6 88.99zm28.9 856.73c-1.4 4.14-8.2 15.17-20.6 33.11l-88.6 122.09c-258.3 360.07-455.4 540.07-591.5 540.07-64.5 0-118.8-22.7-162.8-68.2-42.5-47-63.8-104.9-63.8-173.9 0-80 47.4-201.4 142.2-364.19l321.4-548.39c42.6 9.66 76.3 14.49 101 14.49 37.1 0 89.3-4.83 156.6-14.49l-467.8 771.88c-67.3 111.8-100.9 198-100.9 258.7 0 62.1 32.2 93.1 96.8 93.1 122.3 0 337.3-218.7 645-655.99 6.9-13.8 13.8-20.7 20.6-20.7 8.3 0 12.4 4.14 12.4 12.42z"
    ></path>
    <path
    d="M22217.5 9806.33c0 28.97-99.6 162.79-298.8 401.47-163.5 195.9-292 293.8-385.4 293.8-61.8 0-114-24.1-156.6-72.4-41.2-48.3-61.8-107.6-61.8-178 0-62 12.3-119.3 37.1-171.7 26.1-53.8 92.7-159.36 199.9-316.63 111.2-165.55 166.9-271.09 166.9-316.62 0-56.56-29.6-84.84-88.6-84.84-200.6 0-509.7 373.87-927.4 1121.59-67.3-5.5-107.8-8.3-121.6-8.3-48 0-93.4 2.8-136 8.3l321.5-511.12c182.7-292.48 274.1-475.27 274.1-548.39 0-41.39-17.2-62.08-51.5-62.08-70.1 0-208.2 148.3-414.2 444.92-12.4 17.93-22 27.59-28.9 28.97-6.9 0-11-4.14-12.4-12.42 1.4-6.9 4.2-12.41 8.3-16.55l39.1-51.74c210.2-282.82 351.7-424.22 424.6-424.22 46.7 0 86.5 21.38 119.5 64.15 33 42.76 49.4 93.81 49.4 153.13 0 88.3-51.5 211.08-154.5 368.36 162.1-224.88 286.4-378.7 373-461.48 87.9-82.78 169-124.16 243.1-124.16 60.5 0 111.3 24.83 152.5 74.49 41.3 49.67 61.9 111.06 61.9 184.18 0 92.43-63.2 233.84-189.6 424.26-129.2 194.5-193.7 318.7-193.7 372.5 0 56.5 28.1 84.8 84.5 84.8 122.2 0 333.1-218.7 632.6-655.99 6.9-13.8 13.7-20.7 20.6-20.7 8.3 0 12.4 4.14 12.4 12.42z"
    ></path>
</svg>