<svg width="2068" height="1809" viewBox="0 0 2068 1809" fill="none" xmlns="http://www.w3.org/2000/svg">
<rect width="2068" height="1809" fill="#FFFBF7"/>
<path fill-rule="evenodd" clip-rule="evenodd" d="M423 1040L616.349 774.5L668.5 702.889L355.5 576.193L86.5 890L130.5 988L444 1137L423 1040Z" fill="#D21F1F" fill-opacity="0.4"/>
<path d="M423 1040L444 1137L1356 1566.5L1538 1130L976.5 898.5L963.5 924.5L616.349 774.5L423 1040Z" fill="#1974DF" fill-opacity="0.4"/>
<path d="M922 805.5L1048.5 602.5L1083.5 614L1164 492.5L503 259L375.5 410L305 381.5L189.5 509L355.5 576.193L668.5 702.889L922 805.5Z" fill="#4DD21F" fill-opacity="0.4"/>
<path d="M976.5 898.5L1538 1130L1656 832.5L1133 635.5L976.5 898.5Z" fill="#AE1FD2" fill-opacity="0.4"/>
<path d="M1048.5 602.5L922 805.5L668.5 702.889L616.349 774.5L963.5 924.5L976.5 898.5L1133 635.5L1083.5 614L1048.5 602.5Z" fill="#020202" fill-opacity="0.6"/>
</svg>
