<svg
    xmlns="http://www.w3.org/2000/svg"
    width="1685.333"
    height="1514.667"
    version="1"
    viewBox="0 0 1264 1136"
>
    <path
    d="M6355 11210c-1113-42-2182-419-3085-1088-100-74-266-205-280-222-3-3-48-42-100-87-214-182-536-534-750-818-761-1013-1155-2272-1100-3523 15-368 41-589 106-912 31-153 65-295 94-395 276-947 743-1740 1419-2415 739-737 1663-1250 2666-1480 251-57 451-90 755-122 168-18 830-18 1000 0 231 24 549 74 705 112 22 5 72 16 110 25 77 18 306 83 400 114 1057 343 1995 1006 2677 1892 588 764 968 1670 1097 2619 40 294 46 390 46 755-1 350-6 448-41 725-217 1724-1253 3256-2786 4118-497 280-1044 484-1599 596-280 56-563 92-804 101-294 11-345 12-530 5zm670-670c50-6 128-15 175-21 623-76 1264-292 1815-611 849-493 1526-1216 1950-2083 274-560 431-1128 486-1765 16-184 16-640 1-790-74-699-220-1218-501-1780-532-1061-1433-1898-2524-2344-334-137-733-251-1037-296-361-54-494-64-820-64-281 0-374 6-635 39-643 83-1237 288-1850 640-106 61-342 222-469 320-1047 806-1707 1942-1885 3245-29 213-36 335-36 645 0 351 10 493 56 785 92 579 319 1200 622 1705 687 1143 1777 1947 3060 2259 272 66 534 105 882 130 96 7 621-3 710-14z"
    transform="matrix(.1 0 0 -.1 0 1136)"
    ></path>
    <path
    d="M5395 9421c-57-26-566-320-589-339-65-58-95-178-63-254 9-20 83-153 165-295s158-274 169-293c23-41 119-206 318-550 78-135 190-330 250-435 60-104 122-204 138-222 46-52 107-76 181-71 61 4 75 11 351 168 159 91 304 180 322 198 49 49 65 95 61 177-4 68-7 75-100 235-53 91-179 309-280 485-102 176-287 498-413 715-125 217-239 408-254 424-62 68-176 94-256 57zM4475 8693c-322-198-465-320-573-487-114-177-162-365-162-637 0-241 37-547 100-829 223-1000 784-2167 1519-3160 82-111 303-388 366-460 456-518 861-865 1247-1069 314-166 581-189 913-79 62 20 426 197 458 222 17 13 10 29-119 253-174 303-455 788-504 873-21 36-120 207-220 380s-183 316-184 318c-2 1-32-11-67-27-292-131-631-47-977 244-431 361-818 1031-937 1620-38 190-49 431-25 565 38 215 136 392 268 481 26 18 48 33 50 34 1 1-71 130-161 286-363 631-446 776-602 1044-89 154-188 326-221 383-32 56-63 102-69 101-5 0-50-25-100-56zM8125 4736c-38-13-441-241-570-323-47-30-66-49-87-92-31-60-36-124-16-181 6-19 82-156 168-304 86-149 259-449 385-666 125-217 282-489 348-604 66-114 135-223 154-241s57-40 88-50c97-30 131-15 628 277 133 78 169 117 187 201 15 75 0 116-120 324-101 175-333 577-717 1243-128 222-206 346-230 368-36 31-115 63-157 61-12 0-39-6-61-13z"
    transform="matrix(.1 0 0 -.1 0 1136)"
    ></path>
</svg>